<?xml version="1.0" encoding="UTF-8" standalone="no"?>
<svg
   xmlns:dc="http://purl.org/dc/elements/1.1/"
   xmlns:cc="http://creativecommons.org/ns#"
   xmlns:rdf="http://www.w3.org/1999/02/22-rdf-syntax-ns#"
   xmlns:svg="http://www.w3.org/2000/svg"
   xmlns="http://www.w3.org/2000/svg"
   viewBox="0 0 420.45068 203.2"
   height="203.2"
   width="420.45068"
   xml:space="preserve"
   id="svg2"
   version="1.1"><metadata
     id="metadata8"><rdf:RDF><cc:Work
         rdf:about=""><dc:format>image/svg+xml</dc:format><dc:type
           rdf:resource="http://purl.org/dc/dcmitype/StillImage" /></cc:Work></rdf:RDF></metadata><defs
     id="defs6"><clipPath
       id="clipPath14"
       clipPathUnits="userSpaceOnUse"><path
         id="path12"
         d="M 0,0 H 595 V 842 H 0 Z" /></clipPath><clipPath
       id="clipPath172"
       clipPathUnits="userSpaceOnUse"><path
         id="path170"
         d="m 366.42,497.66 h 5.28 v 11.28 h -5.28 z" /></clipPath><clipPath
       id="clipPath230"
       clipPathUnits="userSpaceOnUse"><path
         id="path228"
         d="m 367.08,435.86 h 5.28 v 11.28 h -5.28 z" /></clipPath><clipPath
       id="clipPath394"
       clipPathUnits="userSpaceOnUse"><path
         id="path392"
         d="m 390.42,296.9 h 5.46 v 6.42 h -5.46 z" /></clipPath><clipPath
       id="clipPath428"
       clipPathUnits="userSpaceOnUse"><path
         id="path426"
         d="m 304.14,360.14 h 5.28 v 11.22 h -5.28 z" /></clipPath></defs><g
     clip-path="url(#clipPath14)"
     transform="matrix(1.3333333,0,0,-1.3333333,-238.868,507.66267)"
     id="g10"><text
       id="text18"
       style="font-variant:normal;font-weight:bold;font-stretch:normal;font-size:9px;font-family:Arial;-inkscape-font-specification:Arial-BoldMT;writing-mode:lr-tb;fill:#000000;fill-opacity:1;fill-rule:nonzero;stroke:none"
       transform="matrix(1,0,0,-1,46.62,790.5203)"><tspan
         id="tspan16"
         y="0"
         x="0 5.5026002 10.4814 15.984 23.9886 28.9674 34.488899 37.0107 43.512299 47.016899 52.519501 55.5201 61.022701 66.001503 69.506104">Lehman Brothers</tspan></text>
<text
       id="text22"
       style="font-variant:normal;font-weight:normal;font-size:9px;font-family:Frutiger;-inkscape-font-specification:Frutiger-Roman;writing-mode:lr-tb;fill:#000000;fill-opacity:1;fill-rule:nonzero;stroke:none"
       transform="matrix(1,0,0,-1,125.46,790.46)"><tspan
         id="tspan20"
         y="0"
         x="0">|</tspan></text>
<text
       id="text26"
       style="font-variant:normal;font-weight:normal;font-stretch:normal;font-size:9px;font-family:Arial;-inkscape-font-specification:ArialMT;writing-mode:lr-tb;fill:#000000;fill-opacity:1;fill-rule:nonzero;stroke:none"
       transform="matrix(1,0,0,-1,129.6,790.46)"><tspan
         id="tspan24"
         y="0"
         x="0 2.493 7.4879999 9.9809999 11.97 16.965 19.458 21.447001 26.441999 31.437 33.958801 40.497299 45.476101 48.4641 50.453098 54.944099 59.9823 62.4753 64.464302 68.955299 73.950302 78.441299 80.963097 86.9571 91.448097 96.4431 98.432098 103.4703 105.4485 110.4435 115.4817 120.5199">Inflation Derivatives Explained </tspan></text>
<path
       id="path28"
       style="fill:#000000;fill-opacity:1;fill-rule:nonzero;stroke:none"
       d="m 45.18,786.8 h 78.12 v 0.47998 H 45.18 Z" /><path
       id="path30"
       style="fill:#000000;fill-opacity:1;fill-rule:nonzero;stroke:none"
       d="m 122.58,786.8 h 7.02 v 0.47998 h -7.02 z" /><path
       id="path32"
       style="fill:#000000;fill-opacity:1;fill-rule:nonzero;stroke:none"
       d="m 128.88,786.8 h 0.48 v 0.47998 h -0.48 z" /><path
       id="path34"
       style="fill:#000000;fill-opacity:1;fill-rule:nonzero;stroke:none"
       d="m 129.36,787.28 h 419.1 v -0.48 h -419.1" /><text
       id="text38"
       style="font-variant:normal;font-weight:normal;font-stretch:normal;font-size:9px;font-family:Arial;-inkscape-font-specification:ArialMT;writing-mode:lr-tb;fill:#000000;fill-opacity:1;fill-rule:nonzero;stroke:none"
       transform="matrix(1,0,0,-1,46.8,43.1)"><tspan
         id="tspan36"
         y="0"
         x="0 4.4793 9.4625998 11.5011 15.8814 18.462601 23.4459 28.4841 33.4674">July 2005</tspan></text>
<text
       id="text42"
       style="font-variant:normal;font-weight:normal;font-stretch:normal;font-size:9px;font-family:Arial;-inkscape-font-specification:ArialMT;writing-mode:lr-tb;fill:#000000;fill-opacity:1;fill-rule:nonzero;stroke:none"
       transform="matrix(1,0,0,-1,540.8397,43.1)"><tspan
         id="tspan40"
         y="0"
         x="0 4.9787998">20</tspan></text>
<path
       id="path44"
       style="fill:#000000;fill-opacity:1;fill-rule:nonzero;stroke:none"
       d="m 45.3,52.46 h 504.84 v 0.48001 H 45.3 Z" /><text
       id="text58"
       style="font-variant:normal;font-weight:normal;font-stretch:normal;font-size:10.02000046px;font-family:'Times New Roman';-inkscape-font-specification:TimesNewRomanPSMT;writing-mode:lr-tb;fill:#000000;fill-opacity:1;fill-rule:nonzero;stroke:none"
       transform="matrix(1,0,0,-1,190.2,748.2803)"><tspan
         id="tspan46"
         y="0"
         x="0 4.4538898 7.7955599 11.13723 15.59112 20.04501 22.835581 27.289471 32.304482 36.804462 41.819473 44.610043 49.063931 53.624035 56.414604 61.429615 65.883507 70.443604 75.458618 79.912506 84.927513 92.608849 97.062737 102.07775 104.86832 109.42842 114.44343 117.7851 122.3452 126.7991 131.25298 135.70688 139.04854 144.06355 148.4453 153.46031 158.02042 160.81097 165.82599 168.61656 173.07045 176.41212 180.79387 184.69666 187.38 189.89603 194.45613 200.58937 207.83484 212.85587 217.41597 225.09729 229.53917 232.33574 237.35677 241.97699 249.71844 254.16031 256.95688 261.97791 266.99893 272.01996 275.92874 280.42874 285.44977 288.79745 293.35754 297.81744 302.19919 306.65909 310.00677 315.0278 319.40955 324.43057 328.99066 331.78726 336.80826 339.60486 344.06476 347.41245 351.87234 355.78113 358.48254">effected via the payment of accrued interest. Two main methods of accrued interest </tspan><tspan
         id="tspan48"
         y="12.54003"
         x="0 5.04006 9.481926 14.479902 22.161234 26.598089 31.638149 34.411686 37.471794 41.908649 45.233288 49.670143 52.730251 56.616005 61.05286 65.489716 70.529778 73.58989 76.363419 81.403481 84.403473 89.401443 92.726082 97.162941 101.59979 104.37333 107.14687 111.58372 116.02058 118.51356 121.51354 127.62374 132.6638 137.10065 140.10065 145.1407 147.90221 152.94228 157.38414 161.2699 164.04343 167.10355 169.87708 173.76283 176.82294 179.52434 184.56439 189.00125 192.00124 197.04129 202.08136 206.52322 209.58333 214.02019 221.70152 226.74158 229.5031 234.54315 239.52309 243.95995 249 252 257.04004 262.01999 265.08011 267.85364 272.89371 276.21832 278.99188 283.42871 286.20227 288.9758 293.97379 298.97174 302.29639 305.06992 307.84344 312.88351 317.92358 322.30533 327.3454 330.34537 335.38544 338.15897 340.9325 343.70605 347.5918 350.65192 353.42545 358.46552">payment are seen in practice. The oldest is the one employed by inflation-linked gilts in </tspan><tspan
         id="tspan50"
         y="25.019939"
         x="0 2.774538 7.8145981 12.252456 15.252444 22.475863 29.69928 32.699268 40.3806 44.822468 48.148106 53.188164 57.626022 60.400558 63.400547 66.175087 70.061844 73.948601 78.988663 83.426521 88.466583 91.406448 96.44651 100.82825 104.15389 109.15287 112.47851 116.91637 119.85623 124.89629 129.89528 134.89426 139.93431 142.42828 145.36815 152.59157 157.63164 162.06949 165.39513 169.83299 172.83298 175.60751 180.60649 185.04436 188.04434 193.0844 197.52626 202.56633 205.32784 208.32782 212.76569 217.76466 222.80472 227.8037 232.80267 237.84274 240.78261 243.55714 247.44389 250.44389 255.48395 260.48294 265.4819 272.70532 277.74539 280.74536 285.18323 287.95776 290.95776 295.3956 298.17014 300.9447 303.94467 306.71921 309.54083 317.22217 321.66403 325.55081 328.04477 331.04477 337.15598 342.19601 344.97055 348.85733 351.8573 354.63184 358.51862">the UK market issued before 2005, where the next coupon is known at all times. This is </tspan><tspan
         id="tspan52"
         y="37.499851"
         x="0 4.4719262 8.9438524 13.976898 16.738411 21.180277 26.213322 30.595068 35.628113 39.887615 44.920662 49.9006 54.160103 59.140045 63.038826 65.800339 70.833382 75.866432 80.125931 84.507675 89.547737 93.807243 98.279167 101.04068 106.07372 111.10677 113.80816 117.10775 124.78908 129.82213 134.85518 137.61668 142.64973 146.90923 149.67075 154.11261 159.14566 163.40515 167.87709 172.91013 177.89008 181.78885 184.55037 188.44914 191.21066 193.97217 199.00522 204.03827 208.29776 213.27771 216.63741 220.89691 225.36884 229.62834 232.38985 239.64835 244.62828 247.98799 255.66931 260.70236 265.73541 268.49692 273.52997 277.78946 282.82251 287.20425 290.56396 293.26535 298.2984 303.33145 307.59094 312.06287 314.8244 317.58591 322.56586 329.82333 332.58484 337.56479 342.60483 346.86435 350.16394 355.20398 358.50357">achieved by using an eight-month lag consisting of a two-month period allowing for </tspan><tspan
         id="tspan54"
         y="50.039879"
         x="0.60019797 5.6272321 10.607172 15.634206 18.395718 21.15723 25.623144 30.089058 32.850571 35.612083 40.639114 45.666149 48.425659 53.45269 56.806385 59.565895 62.327408 67.36747 71.833382 74.653008 77.41452 82.454582 85.808273 88.569786 93.035698 95.797211 98.558723 103.58575 108.61279 111.43242 114.13381 119.11375 124.14079 128.6067 133.63373 136.45337 140.83511 145.86214 150.88918 153.7088 157.62361 160.32501 165.35205 168.17168 175.91312 180.94016 185.96719 188.66858 193.69562 197.61043 200.43005 203.72964 208.7697 212.1234 214.94302 217.70454 222.7446 227.21051 230.03014 234.41188 238.87781 243.34372 246.6974 251.72444 256.1062 261.13321 263.95285 266.71436 271.75443 274.51593 278.95779 282.31149 286.7774 290.69223 293.39362 296.21326 300.67917 305.14508 307.90659 312.3725 317.39954 320.16104 324.60291 327.36441 330.12595 335.15295 340.17999 342.99963 346.35333 349.11484 354.09479 358.53665">publication of the inflation index and six months for the accrued interest calculation (the </tspan><tspan
         id="tspan56"
         y="62.519791"
         x="0.60019797 3.36672 8.4067802 11.724402 14.490924 18.920767 21.687288 24.45381 29.49387 34.484833 37.802456 40.568977 43.335499 48.326462 53.36652 57.748264 62.788326 65.248238 70.2883 73.054817 75.821342 78.58786 82.466606 84.986633 90.026695 94.468559 99.459518 101.97955 105.85829 110.28814 118.06466 120.83118 124.1488 128.57864 133.56961 138.60966 143.64972 148.0916 150.85811 153.37814 157.80798 162.79895 167.839 172.82997 177.82094 182.86099 186.73973 190.05736">inflation-linked gilts pay semi-annual coupons).</tspan></text>
<text
       id="text62"
       style="font-variant:normal;font-weight:normal;font-stretch:normal;font-size:6.48000002px;font-family:'Times New Roman';-inkscape-font-specification:TimesNewRomanPSMT;writing-mode:lr-tb;fill:#000000;fill-opacity:1;fill-rule:nonzero;stroke:none"
       transform="matrix(1,0,0,-1,382.68,690.2603)"><tspan
         id="tspan60"
         y="0"
         x="0 3.24">13</tspan></text>
<text
       id="text70"
       style="font-variant:normal;font-weight:normal;font-stretch:normal;font-size:10.02000046px;font-family:'Times New Roman';-inkscape-font-specification:TimesNewRomanPSMT;writing-mode:lr-tb;fill:#000000;fill-opacity:1;fill-rule:nonzero;stroke:none"
       transform="matrix(1,0,0,-1,190.80007,667.28041)"><tspan
         id="tspan64"
         y="0"
         x="0 7.2414541 10.421802 18.103134 23.143194 26.486868 30.942762 34.123112 38.579002 43.59602 51.337471 59.139042 64.156059 69.173073 72.353416 76.735161 81.752174 86.769196 89.88942 94.906433 98.250107 102.63185 105.99156 110.44746 113.79113 117.1348 121.5907 126.60771 129.78806 137.46939 141.97137 144.76395 149.78096 154.79797 159.81499 162.99535 165.69673 170.73679 175.11855 179.01732 183.47322 186.65356 191.67058 196.12646 201.14348 205.04828 208.22862 211.02119 214.92599 218.10634 220.89891 225.91592 229.09628 234.1133 238.56918 242.47398 246.92987 250.11023 252.9028 257.9198 262.3757 265.55606 270.01193 274.46783 278.92374 282.2674 287.28442 291.66617 296.6832 299.86353 302.6561 307.67313 310.4657 314.9216 318.26526 322.72116 326.62595 329.41852 332.59888 337.61588 342.6329 345.81323 348.60583 353.62283 358.00458">A more common and preferred method these days is to base the accrued interest on the </tspan><tspan
         id="tspan66"
         y="12.54003"
         x="0 4.4599018 9.4809237 17.162256 22.202316 24.963827 29.405693 32.167206 34.928719 39.968777 44.42868 48.508823 56.190155 61.290337 66.311356 70.771263 78.452591 82.894455 87.915482 90.676994 94.585793 98.60582 101.36733 106.40739 110.42741 113.18893 118.22899 122.68889 126.70892 131.16881 135.07762 138.98642 144.00745 148.46735 151.22885 155.68875 158.45027 162.91017 167.9312 171.95122 174.71272 179.75279 183.05237 185.81389 190.27379 193.03529 195.79681 200.81784 205.83885 209.85889 212.62039 217.64142 222.66243 227.04419 232.0652 234.58122 238.54112 244.67438 249.69539 252.45691 256.35568 260.3757 264.8356 269.2955 272.05704 276.51694 281.53796 284.29947 288.74133 291.50284 294.26434 299.24429 304.26532 308.28534 315.96667 320.46866 323.23016 328.25119 333.27222 338.29324 342.25314 349.4986 353.9585 357.86731">cumulative movements in the associated inflation index. This calculation method was </tspan><tspan
         id="tspan68"
         y="25.019939"
         x="0 2.7715321 7.8115921 10.583124 13.354656 16.126188 20.561041 23.332573 27.767424 32.807484 37.367584 42.407646 47.387585 51.947689 58.617001 63.051853 68.091911 72.533775 77.573837 82.015701 86.515686 89.838318 94.83429 98.156921 102.71703 105.48856 110.52862 113.85125 116.55264 120.9875 123.75903 126.53056 131.57062 136.61067 139.97038 142.74191 145.51344 150.50941 155.54948 159.93123 164.97128 169.53139 174.52736 179.56741 184.56339 189.60345">initiated by Canada for inflation-linked bonds</tspan></text>
<text
       id="text74"
       style="font-variant:normal;font-weight:normal;font-stretch:normal;font-size:6.48000002px;font-family:'Times New Roman';-inkscape-font-specification:TimesNewRomanPSMT;writing-mode:lr-tb;fill:#000000;fill-opacity:1;fill-rule:nonzero;stroke:none"
       transform="matrix(1,0,0,-1,384.18,646.7603)"><tspan
         id="tspan72"
         y="0"
         x="0 3.24">14</tspan></text>
<text
       id="text88"
       style="font-variant:normal;font-weight:normal;font-stretch:normal;font-size:10.02000046px;font-family:'Times New Roman';-inkscape-font-specification:TimesNewRomanPSMT;writing-mode:lr-tb;fill:#000000;fill-opacity:1;fill-rule:nonzero;stroke:none"
       transform="matrix(1,0,0,-1,395.2201,642.2603)"><tspan
         id="tspan76"
         y="0"
         x="0 4.4659138 9.4929476 14.519982 19.019964 24.046997 28.512913 32.427727 36.927708 41.954742 46.420654 50.88657 55.913605 60.473705 64.855453 69.835396 74.862427 79.889458 82.65097 87.032715 92.072777 96.632881 99.394394 104.43445 108.99455 113.46046 118.4875 123.51453 126.27605 128.97745 134.0175 138.48341 143.51045 146.27196 150.71382 153.47534">and has been adopted in continental </tspan><tspan
         id="tspan78"
         y="12.47991"
         x="-204.42003 -198.31584 -193.27579 -189.95715 -184.96519 -179.92513 -175.48326 -172.78288 -168.35204 -163.36006 -158.32001 -155.61961 -152.91823 -147.87816 -143.44733 -140.74693 -133.53053 -127.97745 -125.49048 -122.85021 -116.74603 -111.70596 -107.27512 -104.63485 -97.418449 -90.202042 -87.501656 -82.509689 -78.07885 -74.199104 -71.498711 -67.067871 -62.075905 -57.035843 -52.04388 -47.051914 -42.011856 -37.581013 -33.150169 -28.110107 -25.409718 -22.708326 -17.668266 -13.237422 -10.469898 -7.7695079 -5.0019841 -2.2344601 0.46593001 7.6823339 10.449858 13.217382 15.984906 18.685295 22.565041 29.781445 32.548969 35.31649 39.747337 44.787395 47.487785 50.25531 55.295368 59.726215 62.426605 66.857445 71.288292 74.055817 78.486656 83.526718 86.294243 90.72509 93.492615 96.260139 101.30019 106.34026 109.04065 116.72198 121.16384 123.93137 128.97144 133.96339 139.00345 141.70384 145.02246 150.06253 153.38115">Europe and the US. The UK has announced that it will switch the calculation method for </tspan><tspan
         id="tspan80"
         y="25.019939"
         x="-204.42003 -199.98718 -197.21765 -194.44812 -190.54834 -187.77881 -182.73875 -179.41812 -176.64859 -172.21574 -169.44621 -166.67668 -161.63663 -156.64265 -153.32204 -150.55251 -147.78297 -142.74292 -137.70285 -133.32111 -128.28105 -124.44138 -119.40133 -116.6318 -113.86227 -111.09274 -107.21099 -103.31121 -100.54168 -96.659935 -92.778183 -87.784218 -83.351372 -78.31131 -74.471649 -69.431587 -64.391525 -61.690132 -56.650074 -51.670135 -47.770351 -44.449722 -39.40966 -36.089035 -28.870626 -24.437778 -21.117149 -16.123182 -13.634214 -9.7344303 -3.628242 1.411818 5.844666 9.7444496 17.425781 21.867647 24.637177 29.677237 34.717297 39.697235 43.597019 48.029869 53.069927 60.751259 65.791321 70.831383 73.592896 78.025742 81.907486 85.747154 89.06778 94.107841 98.540688 101.31022 104.07974 109.07372 112.39434 116.29412 119.61475 124.0476 127.36823 131.80107 135.1217 139.55455 144.5946 148.97636 153.40921">all inflation-linked gilts issued going forward. The method computes (daily) reference </tspan><tspan
         id="tspan82"
         y="37.499851"
         x="-204.42003 -199.39299 -194.36595 -186.68463 -181.65759 -177.19168 -173.83798 -169.92317 -166.74281 -163.38913 -158.40918 -155.0555 -151.87514 -146.8952 -142.45334 -139.69183 -135.24995 -131.33514 -128.09468 -123.06764 -119.15283 -116.39132 -111.41138 -106.38435 -103.14388 -98.677963 -95.437492 -92.67598 -89.974586 -84.947556 -80.481644 -76.015732 -72.662033 -69.422569 -66.721176 -61.681114 -58.919605 -54.477737 -51.17815 -46.151119 -41.124084 -38.362572 -33.89666 -31.195267 -28.433754 -23.406719 -18.379686 -15.199338 -10.172304 -6.8727179 -3.6332519 -0.87173998 4.1683202 8.6342344 11.874702 14.576094 19.603128 24.630161 29.011908 34.03894 37.219292 42.246323 46.712238 49.473751 54.513809 58.979725 62.894539 66.074883 71.054825 74.414536 76.936569 80.177032 82.938545 87.918488 92.945518 95.707031 100.17294 104.63886 107.40038 110.16188 115.14182 117.66386 120.90332 123.66483 130.92332 135.95036 139.18982 143.57156 148.55151 153.53145">numbers for dates using a linear interpolation of the index values of, typically, two and </tspan><tspan
         id="tspan84"
         y="49.979759"
         x="-204.42003 -201.62746 -196.61044 -193.26677 -188.81087 -184.35498 -180.93515 -173.25381 -168.2368 -163.21979 -160.42722 -155.4102 -151.5054 -148.08559 -143.62968 -138.61267 -133.59566 -131.08365 -127.66382 -121.53458 -116.51757 -112.06168 -108.64185 -105.29818 -100.91643 -97.572754 -93.116859 -89.773186 -85.391441 -80.374428 -75.918533 -71.462639 -68.042816 -63.025799 -58.008785 -50.327454 -45.287395 -40.831501 -37.487827 -34.068001 -30.724325 -25.707312 -22.363638 -18.959845 -16.198332 -11.158272 -6.695364 -3.275538 0.075149998 2.8366621 6.1873498 10.099158 12.86067 16.280497 21.304523 24.655212 28.075039 32.456783 37.496845 42.476784 45.89661 50.359516 54.822426 57.583939 62.046844 67.070877 72.094902 76.476646 79.827339 83.307281 91.048737 96.072762 101.09679 103.79818 108.82221 112.24203 116.70494 121.68488 126.70892 131.17181 133.93333 137.83211 141.25194 144.01346 149.05351 153.43526">three months ago. The reference number for the first of any calendar month equals the </tspan><tspan
         id="tspan86"
         y="62.519791"
         x="-204.42003 -201.65851 -196.63348 -191.60846 -187.2267 -182.20168 -177.64157 -172.61655 -168.15263 -165.39113 -160.35106 -155.88715 -151.38718 -146.36214 -143.06256 -138.50246 -135.74094 -130.70088 -126.23697 -121.67686 -117.21296 -112.74905 -109.98753 -105.52363 -100.4986 -95.473564 -91.009659 -87.657967 -83.157982 -75.476654 -70.451622 -65.42659 -62.665081 -57.640049 -53.079948 -50.318436 -45.278378 -41.926685 -37.462776 -32.998867 -28.438765 -20.757433 -15.732402 -10.707372 -7.9458599 -2.92083 0.99198002 5.5520821 10.015992 14.479902 17.831593 20.593103 23.354616 27.796482 31.148172 33.668201">index value of the calendar month three months earlier. </tspan></text>
<text
       id="text92"
       style="font-style:italic;font-variant:normal;font-weight:normal;font-stretch:normal;font-size:10.02000046px;font-family:'Times New Roman';-inkscape-font-specification:TimesNewRomanPS-ItalicMT;writing-mode:lr-tb;fill:#000000;fill-opacity:1;fill-rule:nonzero;stroke:none"
       transform="matrix(1,0,0,-1,433.38027,579.74051)"><tspan
         id="tspan90"
         y="0"
         x="0">I</tspan></text>
<text
       id="text96"
       style="font-variant:normal;font-weight:normal;font-stretch:normal;font-size:10.02000046px;font-family:'Times New Roman';-inkscape-font-specification:TimesNewRomanPSMT;writing-mode:lr-tb;fill:#000000;fill-opacity:1;fill-rule:nonzero;stroke:none"
       transform="matrix(1,0,0,-1,436.73998,579.74051)"><tspan
         id="tspan94"
         y="0"
         x="0 3.3066001 8.3466597 13.3266 16.686306 25.564026 29.982845 34.962788 38.269386 43.309444 48.289387">(01-May-04)</tspan></text>
<text
       id="text100"
       style="font-style:italic;font-variant:normal;font-weight:normal;font-stretch:normal;font-size:10.02000046px;font-family:'Times New Roman';-inkscape-font-specification:TimesNewRomanPS-ItalicMT;writing-mode:lr-tb;fill:#000000;fill-opacity:1;fill-rule:nonzero;stroke:none"
       transform="matrix(1,0,0,-1,488.40009,579.74051)"><tspan
         id="tspan98"
         y="0"
         x="0 6.7604942 13.440828 19.502928">=CPI</tspan></text>
<text
       id="text104"
       style="font-variant:normal;font-weight:normal;font-stretch:normal;font-size:10.02000046px;font-family:'Times New Roman';-inkscape-font-specification:TimesNewRomanPSMT;writing-mode:lr-tb;fill:#000000;fill-opacity:1;fill-rule:nonzero;stroke:none"
       transform="matrix(1,0,0,-1,511.25972,579.74051)"><tspan
         id="tspan102"
         y="0"
         x="0 3.3597059 8.9538717 13.335618 18.315557 21.675264 26.655205 31.68825 34.927715 37.387627">(Feb-04), </tspan></text>
<text
       id="text108"
       style="font-style:italic;font-variant:normal;font-weight:normal;font-stretch:normal;font-size:10.02000046px;font-family:'Times New Roman';-inkscape-font-specification:TimesNewRomanPS-ItalicMT;writing-mode:lr-tb;fill:#000000;fill-opacity:1;fill-rule:nonzero;stroke:none"
       transform="matrix(1,0,0,-1,190.80008,567.2606)"><tspan
         id="tspan106"
         y="0"
         x="0">I</tspan></text>
<text
       id="text112"
       style="font-variant:normal;font-weight:normal;font-stretch:normal;font-size:10.02000046px;font-family:'Times New Roman';-inkscape-font-specification:TimesNewRomanPSMT;writing-mode:lr-tb;fill:#000000;fill-opacity:1;fill-rule:nonzero;stroke:none"
       transform="matrix(1,0,0,-1,194.15978,567.2606)"><tspan
         id="tspan110"
         y="0"
         x="0 3.2995861 8.3396463 13.312572 16.672277 20.532984 25.573044 30.545971 33.905678 38.878601 43.851528">(01-Jun-04)</tspan></text>
<text
       id="text116"
       style="font-style:italic;font-variant:normal;font-weight:normal;font-stretch:normal;font-size:10.02000046px;font-family:'Times New Roman';-inkscape-font-specification:TimesNewRomanPS-ItalicMT;writing-mode:lr-tb;fill:#000000;fill-opacity:1;fill-rule:nonzero;stroke:none"
       transform="matrix(1,0,0,-1,241.38004,567.2606)"><tspan
         id="tspan114"
         y="0"
         x="0 6.7464662 13.412772 19.517958">=CPI</tspan></text>
<text
       id="text124"
       style="font-variant:normal;font-weight:normal;font-stretch:normal;font-size:10.02000046px;font-family:'Times New Roman';-inkscape-font-specification:TimesNewRomanPSMT;writing-mode:lr-tb;fill:#000000;fill-opacity:1;fill-rule:nonzero;stroke:none"
       transform="matrix(1,0,0,-1,264.23966,567.2606)"><tspan
         id="tspan118"
         y="0"
         x="0 3.347682 12.226404 16.686306 19.985891 23.285479 28.325539 33.305477 36.665184 39.181206 42.601032 47.060932 52.081955 57.102978 60.582924 64.421585 69.461647 72.941589 77.921532 82.961594 85.477615 88.957558 95.018661 99.998596 104.4585 107.93845 111.28613 115.74603 119.09371 123.55361 126.9013 131.28304 136.30406 140.76396 145.22386 148.70381 153.68376 158.6637 166.34503 171.36604 175.82594 179.17363 183.08243 186.56238 189.91006 194.93109 198.27876 201.69859 206.71962 209.51619 214.53722 218.91896 222.26665 225.7466 230.76761 235.22751 238.02409 242.48399 246.39281 249.87274 254.33266 258.79254 263.81357 267.29352 270.09009 275.11111 279.49286 284.47281">(Mar-04), and so on. The reference numbers for other dates can then </tspan><tspan
         id="tspan120"
         y="12.47991"
         x="-73.439583 -68.414558 -63.950645 -60.711182 -56.247269 -51.22224 -43.540909 -38.515877 -33.490849 -30.729336 -26.265427 -21.240396 -18.000931 -13.02099 -9.1222076 -6.3606958 -1.3356659 3.689364 6.9288301 9.6903419 12.451854 17.491915 21.955824 26.419733 29.771423 33.010891 35.772404 40.812462 43.573975 47.955719 51.307411 56.28735 61.312382 64.073891 68.537804 71.299316 74.060829 79.085854 84.110886 87.291237 92.316261 95.667953 98.907417 101.66893 106.64887 111.11279 114.35225 117.70394 122.16785 125.51954 129.98344 133.33514 137.71689 142.74191 147.20583 151.66974 154.90919 159.88914 164.86908 172.55042 177.57544 182.03935 185.39104 189.30385 192.54332 197.56834 200.92004 204.1595 206.92102 211.96107 216.42499 219.66446 223.01614 225.77765 229.12935 233.04216 235.80367 239.04314 244.06816 248.53207 253.51201 257.4108 260.65027 265.67529 269.02698 272.26645 275.02795 280.06802 284.44977">be computed using linear interpolation of the reference numbers of the first days of the </tspan><tspan
         id="tspan122"
         y="25.019939"
         x="-73.439583 -68.976677 -64.513771 -61.752258 -57.289349 -52.265324 -47.241295 -42.859547 -39.508862 -35.609077 -27.927744 -22.903715 -17.879688 -15.118176 -10.094148 -6.1823401 -3.663312 0.236472 5.7544861 10.734426 14.085114 17.984898 22.447805 27.471834 31.934742 39.616074 44.640102 47.401615 51.864521 54.383549 58.283333 61.044846 66.084908 69.984688 75.569839 78.331352 83.311287 88.351349 91.702042 96.164948 100.00461 104.98455 107.50458 112.52861 116.36827 123.61674 128.07965 131.97943 136.44234 141.46637 149.14771 154.17172 159.19576 161.95728 166.33902 170.2388 173.00031 178.04037 182.50328 186.40306 189.75375 194.21666 197.56735 201.9491 205.29977 209.7627 214.74263 219.20554 223.66844 227.56822 232.59225 237.61629 245.29762 250.32164 254.78455 258.13525 260.65427">calendar months. For example, in Figure 4.4 we compute the reference number, </tspan></text>
<text
       id="text128"
       style="font-style:italic;font-variant:normal;font-weight:normal;font-stretch:normal;font-size:10.02000046px;font-family:'Times New Roman';-inkscape-font-specification:TimesNewRomanPS-ItalicMT;writing-mode:lr-tb;fill:#000000;fill-opacity:1;fill-rule:nonzero;stroke:none"
       transform="matrix(1,0,0,-1,528.66045,542.24066)"><tspan
         id="tspan126"
         y="0"
         x="0">I</tspan></text>
<text
       id="text136"
       style="font-variant:normal;font-weight:normal;font-stretch:normal;font-size:10.02000046px;font-family:'Times New Roman';-inkscape-font-specification:TimesNewRomanPSMT;writing-mode:lr-tb;fill:#000000;fill-opacity:1;fill-rule:nonzero;stroke:none"
       transform="matrix(1,0,0,-1,532.02016,542.24066)"><tspan
         id="tspan130"
         y="0"
         x="0 3.302592 8.2785244 13.318584">(12-</tspan><tspan
         id="tspan132"
         y="12.47991"
         x="-341.22009 -332.34137 -327.89948 -322.91956 -319.55984 -314.53381 -309.55386 -306.20117 -302.84146 -298.37656 -295.61505 -292.31546 -287.28943 -282.30948 -278.9498 -270.07108 -265.62921 -260.64926 -257.28955 -252.26352 -247.28358 -242.30363 -237.26358 -233.90387 -230.60429 -225.62434 -222.32477 -218.96506 -216.20354 -211.16348 -206.69858 -203.39899 -196.14851 -190.56136 -187.20166 -180.54137 -175.02335 -171.67065 -168.31094 -165.60956 -160.58353 -155.5575 -151.17575 -146.14972 -143.6898 -140.33009 -137.03052 -131.99045 -128.69087 -123.66483 -119.19992 -114.17389 -109.79214 -106.49256 -102.0507 -99.289185 -96.76915 -93.409447 -90.647934 -85.607872 -81.14296 -77.843376 -72.817345 -68.352432 -65.590919 -62.829407 -57.849468 -54.489761 -51.13707 -46.672157 -43.319466 -38.854553 -35.501862 -31.120115 -26.094084 -21.629171 -17.164261 -13.864674 -8.8386421 -3.8126099 3.868722 8.8947544 13.359666 16.659252">May-04) at 12 May 2004 for the US CPI index. In general, the daily reference number </tspan><tspan
         id="tspan134"
         y="24.95982"
         x="-341.22009 -336.77219 -332.32431 -327.31534 -324.85541 -319.84641 -315.39853 -312.87851 -308.49677 -303.4567 -295.77536 -290.76636 -285.75739 -282.97281 -278.52493 -273.51593 -270.99591 -266.54803 -262.70938 -260.18933 -256.85367 -251.84468 -249.06012 -246.27557 -241.26657 -234.03313 -230.13635 -227.35179">can be computed as follows: </tspan></text>
<path
       id="path138"
       style="fill:none;stroke:#000000;stroke-width:0.39899999;stroke-linecap:round;stroke-linejoin:round;stroke-miterlimit:10;stroke-dasharray:none;stroke-opacity:1"
       d="m 353.1,496.16 h 24.12" /><text
       id="text142"
       style="font-variant:normal;font-weight:normal;font-stretch:normal;font-size:13.1644001px;font-family:Symbol;-inkscape-font-specification:SymbolMT;writing-mode:lr-tb;fill:#000000;fill-opacity:1;fill-rule:nonzero;stroke:none"
       transform="matrix(0.72648203,0,0,-1,378.66,493.7603)"><tspan
         id="tspan140"
         y="0"
         x="0 189.29617">[]</tspan></text>
<text
       id="text150"
       style="font-variant:normal;font-weight:normal;font-stretch:normal;font-size:9.59200001px;font-family:'Times New Roman';-inkscape-font-specification:TimesNewRomanPSMT;writing-mode:lr-tb;fill:#000000;fill-opacity:1;fill-rule:nonzero;stroke:none"
       transform="matrix(1,0,0,-1,518.28,493.7603)"><tspan
         id="tspan144"
         y="0"
         x="0 -5.4597664 -19.919706 -40.139641 -50.640003 -45.844006 -53.939651 -71.280067 -85.680542 -91.320633 -118.38063 -128.881 -124.08499 -132.18063">,)//01()/1/01(</tspan><tspan
         id="tspan146"
         y="-5.9997959"
         x="-145.50105">1</tspan><tspan
         id="tspan148"
         y="0"
         x="-178.08124 -192.48074 -212.76111 -223.26147 -218.46547 -226.56113 -244.92117 -259.32068 -279.54062 -295.3204">)//01()//(</tspan></text>
<text
       id="text160"
       style="font-style:italic;font-variant:normal;font-weight:normal;font-stretch:normal;font-size:9.59200001px;font-family:'Times New Roman';-inkscape-font-specification:TimesNewRomanPS-ItalicMT;writing-mode:lr-tb;fill:#000000;fill-opacity:1;fill-rule:nonzero;stroke:none"
       transform="matrix(1,0,0,-1,503.87857,493.7603)"><tspan
         id="tspan152"
         y="0"
         x="0 4.2588482 -21.119665 -14.194242 -43.979321 -65.758919 -61.500069 -99.358734 -92.433311 -122.21838">yymmIyymmI</tspan><tspan
         id="tspan154"
         y="7.4395552"
         x="-148.13789 -141.21246 -138.54588">DiM</tspan><tspan
         id="tspan156"
         y="-6.0007553"
         x="-150.11768 -145.32167">dd</tspan><tspan
         id="tspan158"
         y="-0.00095920003"
         x="-172.61763 -168.35878 -193.7373 -186.81187 -216.53748 -239.39714 -235.13829 -260.51682 -253.59138 -277.4371 -272.64108 -285.29678">yymmIyymmddI</tspan></text>
<text
       id="text164"
       style="font-variant:normal;font-weight:normal;font-stretch:normal;font-size:9.59200001px;font-family:Symbol;-inkscape-font-specification:SymbolMT;writing-mode:lr-tb;fill:#000000;fill-opacity:1;fill-rule:nonzero;stroke:none"
       transform="matrix(1,0,0,-1,452.22086,493.76126)"><tspan
         id="tspan162"
         y="0"
         x="0 -31.739927">−+</tspan></text>
<g
       id="g166"><g
         clip-path="url(#clipPath172)"
         id="g168"><text
           id="text176"
           style="font-variant:normal;font-weight:normal;font-stretch:normal;font-size:9.59200001px;font-family:Symbol;-inkscape-font-specification:SymbolMT;writing-mode:lr-tb;fill:#000000;fill-opacity:1;fill-rule:nonzero;stroke:none"
           transform="matrix(1,0,0,-1,366.42,499.7603)"><tspan
             id="tspan174"
             y="0"
             x="0">−</tspan></text>
</g></g><text
       id="text180"
       style="font-variant:normal;font-weight:normal;font-stretch:normal;font-size:9.59200001px;font-family:Symbol;-inkscape-font-specification:SymbolMT;writing-mode:lr-tb;fill:#000000;fill-opacity:1;fill-rule:nonzero;stroke:none"
       transform="matrix(1,0,0,-1,345.42,493.7603)"><tspan
         id="tspan178"
         y="0"
         x="0 -66.299904">+=</tspan></text>
<text
       id="text184"
       style="font-variant:normal;font-weight:normal;font-stretch:normal;font-size:10.02000046px;font-family:'Times New Roman';-inkscape-font-specification:TimesNewRomanPSMT;writing-mode:lr-tb;fill:#000000;fill-opacity:1;fill-rule:nonzero;stroke:none"
       transform="matrix(1,0,0,-1,190.79972,467.96001)"><tspan
         id="tspan182"
         y="0"
         x="0 7.2444601 12.26448 16.646227 20.005932 24.464832">where </tspan></text>
<text
       id="text188"
       style="font-style:italic;font-variant:normal;font-weight:normal;font-stretch:normal;font-size:10.02000046px;font-family:'Times New Roman';-inkscape-font-specification:TimesNewRomanPS-ItalicMT;writing-mode:lr-tb;fill:#000000;fill-opacity:1;fill-rule:nonzero;stroke:none"
       transform="matrix(1,0,0,-1,219.00001,467.96001)"><tspan
         id="tspan186"
         y="0"
         x="0 7.2344398 10.02">DiM</tspan></text>
<text
       id="text194"
       style="font-variant:normal;font-weight:normal;font-stretch:normal;font-size:10.02000046px;font-family:'Times New Roman';-inkscape-font-specification:TimesNewRomanPSMT;writing-mode:lr-tb;fill:#000000;fill-opacity:1;fill-rule:nonzero;stroke:none"
       transform="matrix(1,0,0,-1,241.01996,467.96001)"><tspan
         id="tspan190"
         y="0"
         x="0 5.0240278 9.4057741 14.429802 19.453831 22.215342 26.678249 30.590057 34.310486 37.071995 42.051937 46.514843 50.235271 55.21521 60.255268 67.996719 73.036781 77.499687 80.85038 84.510681 89.534714 92.885399 96.545708 101.56973 106.03264 111.01258 114.91136 118.63179 121.3933 126.37325 130.09367 132.85518 137.89523 142.35815 146.07857 153.7599 158.78394 163.80797 166.56947 171.59351 175.31393 178.66461 183.64456 186.94414 190.66457 195.12747 197.88899 200.6505 204.37093 209.39496 213.85786 218.8378 222.73659 226.45702 231.48103 235.94394 238.70546 245.90382 250.36673 254.82964 259.85367 263.5741 266.3356 271.37567 275.83856 279.55899 282.9097 285.61108 288.96176 292.87357 295.6351 299.35553 304.33545 307.69516">denotes the number of days in the month for all days between the first of </tspan><tspan
         id="tspan192"
         y="12.47991"
         x="-50.220242 -46.324463 -41.877586 -36.869591 -31.861595 -27.414721 -24.080065 -19.072067 -16.552038 -12.170292 -7.1302319 -2.122236 0.39779401 3.18135 8.1893463 12.636222 15.156252 18.490908 21.274464 24.609119 28.504896 31.288452 33.748363 38.756359 42.091015 44.611046 51.843479 56.290356 60.737232 65.11898 72.800308 77.84037 82.287247 85.621902 88.124901 90.644928 96.214043 101.22204 104.55669 107.07673 109.86028 114.86828 119.25002 121.70993 126.71793 131.16481 136.17281 140.06857 142.58861 145.37216 150.38016 152.90019 160.13263 164.5795 169.02638 173.47325 181.15459 186.16258 190.60945 193.94411 196.46414 203.69658 208.07832 210.59836 215.60635 219.9881 224.99609 229.44296 232.22653">January and the first of December. For the days in December we have: </tspan></text>
<path
       id="path196"
       style="fill:none;stroke:#000000;stroke-width:0.39899999;stroke-linecap:round;stroke-linejoin:round;stroke-miterlimit:10;stroke-dasharray:none;stroke-opacity:1"
       d="m 353.7,434.36 h 24.12" /><text
       id="text200"
       style="font-variant:normal;font-weight:normal;font-stretch:normal;font-size:13.1644001px;font-family:Symbol;-inkscape-font-specification:SymbolMT;writing-mode:lr-tb;fill:#000000;fill-opacity:1;fill-rule:nonzero;stroke:none"
       transform="matrix(0.72640606,0,0,-1,379.32,431.9603)"><tspan
         id="tspan198"
         y="0"
         x="0 174.77716">[]</tspan></text>
<text
       id="text208"
       style="font-variant:normal;font-weight:normal;font-stretch:normal;font-size:9.59200001px;font-family:'Times New Roman';-inkscape-font-specification:TimesNewRomanPSMT;writing-mode:lr-tb;fill:#000000;fill-opacity:1;fill-rule:nonzero;stroke:none"
       transform="matrix(1,0,0,-1,508.08,431.9603)"><tspan
         id="tspan202"
         y="0"
         x="0 -5.2199664 -19.679907 -30.960098 -26.164099 -34.500507 -45.00087 -40.204868 -48.300514 -65.64093 -69.721367 -92.581024 -103.08139 -98.285385 -107.52152 -118.08136 -113.28535 -121.381">.)/12/01()1/01/01(</tspan><tspan
         id="tspan204"
         y="-5.9997959"
         x="-134.70142">1</tspan><tspan
         id="tspan206"
         y="0"
         x="-167.2816 -181.74155 -193.02173 -188.22574 -196.56215 -207.0625 -202.26651 -210.36215 -228.7222 -243.18214 -254.46233 -249.66634 -258.00275 -273.78253">)/12/01()/12/(</tspan></text>
<text
       id="text218"
       style="font-style:italic;font-variant:normal;font-weight:normal;font-stretch:normal;font-size:9.59200001px;font-family:'Times New Roman';-inkscape-font-specification:TimesNewRomanPS-ItalicMT;writing-mode:lr-tb;fill:#000000;fill-opacity:1;fill-rule:nonzero;stroke:none"
       transform="matrix(1,0,0,-1,493.91645,431.9603)"><tspan
         id="tspan210"
         y="0"
         x="0 4.2588482 -38.579983 -72.900162 -68.641312 -111.60004">yyIyyI</tspan><tspan
         id="tspan212"
         y="7.4395552"
         x="-137.51955 -130.59412 -127.92754">DiM</tspan><tspan
         id="tspan214"
         y="-6.0007553"
         x="-139.55977 -134.76376">dd</tspan><tspan
         id="tspan216"
         y="-0.00095920003"
         x="-162.05972 -157.80087 -200.63969 -223.49936 -219.24051 -256.13901 -251.34302 -263.99869">yyIyyddI</tspan></text>
<text
       id="text222"
       style="font-variant:normal;font-weight:normal;font-stretch:normal;font-size:9.59200001px;font-family:Symbol;-inkscape-font-specification:SymbolMT;writing-mode:lr-tb;fill:#000000;fill-opacity:1;fill-rule:nonzero;stroke:none"
       transform="matrix(1,0,0,-1,447.65711,431.96126)"><tspan
         id="tspan220"
         y="0"
         x="0 -15.779799">−+</tspan></text>
<g
       id="g224"><g
         clip-path="url(#clipPath230)"
         id="g226"><text
           id="text234"
           style="font-variant:normal;font-weight:normal;font-stretch:normal;font-size:9.59200001px;font-family:Symbol;-inkscape-font-specification:SymbolMT;writing-mode:lr-tb;fill:#000000;fill-opacity:1;fill-rule:nonzero;stroke:none"
           transform="matrix(1,0,0,-1,367.08,437.9603)"><tspan
             id="tspan232"
             y="0"
             x="0">−</tspan></text>
</g></g><text
       id="text238"
       style="font-variant:normal;font-weight:normal;font-stretch:normal;font-size:9.59200001px;font-family:Symbol;-inkscape-font-specification:SymbolMT;writing-mode:lr-tb;fill:#000000;fill-opacity:1;fill-rule:nonzero;stroke:none"
       transform="matrix(1,0,0,-1,346.02,431.9603)"><tspan
         id="tspan236"
         y="0"
         x="0 -60.899609">+=</tspan></text>
<text
       id="text242"
       style="font-variant:normal;font-weight:bold;font-stretch:normal;font-size:9px;font-family:Arial;-inkscape-font-specification:Arial-BoldMT;writing-mode:lr-tb;fill:#000000;fill-opacity:1;fill-rule:nonzero;stroke:none"
       transform="matrix(1,0,0,-1,190.8,396.0803)"><tspan
         id="tspan240"
         y="0"
         x="0 5.5043998 8.0117998 13.5162 19.020599 22.527 27.5058 30.027599 35.006401 37.528198 42.507 44.968498 53.970299 60.473701 65.452499 67.9599 70.5411 75.459602 77.9814 81.487801 86.466599 89.469002 94.478401 97.984802 102.9636 108.468 113.4774 118.4562 120.978 126.4824 131.9868 139.99319 145.4976 150.47639 153.9828 158.96159 161.4834 166.4622 171.44099 174.0222 179.00101 184.52251 187.02991 192.0087 195.01109 197.51849 203.0229 208.5273 211.0491 213.9894 219.51089 223.0173 225.53909 232.0425 238.0509 240.57269 247.0761 253.0845 255.5919">Figure 4.4. Daily reference numbers calculation for US CPI </tspan></text>
<path
       id="path244"
       style="fill:#c0c0c0;fill-opacity:1;fill-rule:nonzero;stroke:none"
       d="M 189.3,387.98 H 550.14 V 387.5 H 189.3" /><text
       id="text250"
       style="font-style:italic;font-variant:normal;font-weight:normal;font-stretch:normal;font-size:7.01999998px;font-family:Arial;-inkscape-font-specification:Arial-ItalicMT;writing-mode:lr-tb;fill:#000000;fill-opacity:1;fill-rule:nonzero;stroke:none"
       transform="matrix(1,0,0,-1,191.58,214.7603)"><tspan
         id="tspan246"
         y="0"
         x="0 1.9529639 5.8574882 7.778862 9.7318258 13.63635 15.13512 18.675306 20.59668 22.549644 24.109488 28.014011 31.918535 34.198631 38.103157 40.084202 45.154045 48.993282 50.974327 54.485729 58.324966 64.174034 68.078552 71.983078 73.936043 77.840569 79.76194 81.714905 85.619431 89.458672 91.439713 95.344238 99.248756 100.8086 102.30737 105.84756 107.76894 110.108 114.01252 115.96548 119.87001 122.20908 126.1136 130.01813 133.52953 137.36876 139.34981 143.25433 147.15886 153.00792 156.91245 160.81697 163.09706 165.07811 167.03107 170.93559 173.27466 175.19603 177.149 181.05353 184.95805 186.93909 192.00893 196.69267 198.67372 203.74356 208.36343 210.31639 212.23776 213.79761 217.70213 221.60666 225.44589 228.95731 230.87868 232.83163 236.67088 239.00993 240.99098 244.89551 248.73474 250.71579 256.47571 260.3746 263.88602 265.86707 269.77158 273.67612 277.58063 281.41986 283.37283">In this figure we compute the daily reference number for the US CPI index for 12 May 2004. </tspan><tspan
         id="tspan248"
         y="8.0400057"
         x="0.120042 4.8037858 8.7083101 12.612834 14.951898 18.463303 22.30254 24.255505 26.236547 30.141071 34.045597 37.950119 43.799183 47.703709 51.542946 53.523991 58.207733 60.487831 64.392357 66.345322 70.24984 74.154366 76.434464 79.945869 81.898827">Source: Lehman Brothers. </tspan></text>
<path
       id="path252"
       style="fill:#c0c0c0;fill-opacity:1;fill-rule:nonzero;stroke:none"
       d="m 190.08,201.74 h 360.06 v 0.48 H 190.08 Z" /><text
       id="text268"
       style="font-variant:normal;font-weight:normal;font-stretch:normal;font-size:10.02000046px;font-family:'Times New Roman';-inkscape-font-specification:TimesNewRomanPSMT;writing-mode:lr-tb;fill:#000000;fill-opacity:1;fill-rule:nonzero;stroke:none"
       transform="matrix(1,0,0,-1,190.8,185.5403)"><tspan
         id="tspan254"
         y="0"
         x="0 7.2214141 11.106168 13.878702 18.875675 23.915735 26.435766 29.2083 34.24836 38.684216 41.204243 44.527878 49.56794 54.003792 56.776325 59.548859 64.545837 67.869469 70.389496 73.713135 78.148987 81.472618 85.908478 89.232109 93.667961 98.708023 103.14388 107.57973 110.03964 115.0797 120.05964 127.74097 132.78104 137.21689 140.54053 144.42528 146.91725 149.43727 152.20981 157.24988 160.5735 163.34604 167.78189 170.55443 173.32697 178.36702 183.40709 186.76678 189.53932 192.31186 197.30882 202.34889 206.73064 211.77069 214.29073 219.2877 224.32776 229.32474 234.36479 238.24954 240.76958 245.20543 249.64128 254.68135 257.20139 262.24142 266.68329 269.20334 274.20032 279.19727 284.23734 287.00989 291.44574 296.48578 298.94571 301.71823 306.7583 309.27832 312.05084 317.09091 321.52676 324.04681 327.93155 330.7041 335.13995 340.17999 345.22006 349.60181 352.92545 357.92242">Using the (daily) reference numbers, inflation-linked bonds can be quoted in the standard </tspan><tspan
         id="tspan256"
         y="12.54003"
         x="0 7.7414522 12.183318 17.218369 22.253418 26.727348 30.026934 32.546963 35.127113 37.888626 42.928684 47.402615 50.164127 52.744278 55.505791 59.404572 61.934624 64.514771 68.988701 72.91153 75.491684 78.853394 83.327324 87.801254 90.562767 93.142914 98.177963 103.21301 108.19296 113.228 117.15083 119.61074 124.77104 132.03053 137.06558 144.32507 148.70682 153.74187 158.21581 161.51538 164.03542 166.61557 171.08949 175.01233 177.2999 185.04135 189.48322 194.51526 197.27676 200.03828 205.07033 210.10237 214.57329 219.60533 222.18549 226.56723 231.60728 236.58723 241.62729 246.09822 248.62526 251.20541 253.96692 259.00699 261.58713 266.56708 269.92679 274.95883 279.34058 282.69928 285.27942 288.04092 293.08099 295.66113 300.69318 305.16412 307.92563 310.50577 313.26727 318.30734 322.77826 325.35843 330.39047 334.86139 337.62289 342.66296 347.13388 349.71402 354.69397 357.99356">manner, that is, as real bonds. However, as mentioned above, in order to get the value of </tspan><tspan
         id="tspan258"
         y="25.019939"
         x="0 2.7855599 7.7955599 12.24444 15.184308 17.969868 22.979868 26.316528 29.102089 33.550968 36.336529 39.122089 44.132088 49.14209 52.478748 55.264309 58.04987 63.059868 68.06987 72.451614 77.461617 80.401482 85.411484 90.421478 95.43148 100.44148 102.94648 105.88635 108.67191 113.68191 116.46747 120.36525 123.23999 128.25299 131.59267 134.38123 138.83311 143.285 146.22487 149.01343 154.02644 156.96631 160.30597 164.75786 169.20975 171.99831 174.93817 177.72675 182.17863 185.5183 193.19963 197.10042 200.04028 203.94107 208.95407 213.96709 218.98009 221.76865 226.78166 229.72153 234.73453 239.16037 242.16035 249.84169 254.88174 257.6723 260.46289 263.25345 268.26846 271.05902 273.84961 278.3035 283.31851 286.25836 291.27338 296.28839 299.22827 302.01883 307.03384 311.48773 314.42761 317.21817 322.23318 327.2482 331.70209 336.7171 339.65695 342.99863 347.45251 350.1539 352.91544 357.93042">the inflation-linked bond, this price in real terms should be multiplied by the index ratio </tspan><tspan
         id="tspan260"
         y="37.499851"
         x="0 7.2504721 12.276504 15.038016 19.419762 24.445793 28.1061 30.867613 34.766396 38.426701 41.188213 46.228271 50.61002 54.270325 58.652069 63.692131 66.991714 70.351425 74.816338 79.842369 82.603874 86.204063 91.230095 95.695007 98.45652 101.21803 106.19798 109.85828 113.21097 117.59271 120.94541 125.41032 128.76302 133.14476 138.17079 142.6357 147.10062 150.70081 155.72684 160.75287 168.43419 173.46024 177.92514 181.27783 184.93814 189.40305 194.42908 202.11041 207.13644 212.16248 214.924 219.30574 224.34579 228.0061 230.76761 235.74756 239.40787 242.16937 247.20943 251.67435 255.33466 263.01599 267.45786 272.48389 277.50992 281.97482 285.32751 288.98782 292.82648 297.86655 302.8465 307.88654 312.35147 316.26526 319.02679 323.40854 328.43457 332.09488 337.12091 342.10083 345.76114 348.46252 353.44247 357.90738">which is the current daily reference number computed in the manner suggested by the </tspan><tspan
         id="tspan262"
         y="50.039879"
         x="0 6.6602941 11.10216 16.124184 20.585089 25.607113 28.368624 32.75037 37.790428 40.310459 46.371559 49.731262 54.192169 58.573914 62.483719 67.505745 70.854424 75.834366 78.294273 83.316299 86.077812 91.099838 93.801231 98.82325 103.28416 108.2641 110.78413 115.76407 120.744 123.26404 126.02555 131.06561 135.5265 138.04654 143.06857 147.52946 150.29099 153.05249 158.03244 160.55246 163.90115 168.2829 171.63158 176.01332 179.36201 183.82291 188.84494 193.30585 197.68759 200.20761 205.18756 210.22762 217.90895 222.94901 227.40991 230.75859 233.21851 237.67941 240.44092 242.96095 245.72246 250.76253 255.22343 257.74347 261.65326 264.41476 268.87567 272.22437 274.98587 277.44577 282.4678 285.7674 288.28741 291.04895 296.08899 300.5499 303.0098 308.03183 313.01178 317.9917 323.03177 325.5488">Canadian Treasury divided by the daily reference number at the start of the bond. </tspan><tspan
         id="tspan264"
         y="68.519768"
         x="0 3.353694 8.3807278 14.440824 20.028978 22.73037 27.757404 32.737343 36.091038 40.556953 46.556927 51.583961 54.043873 59.023811 65.083908 72.335381 76.801292 82.861389 87.888428 90.589821 95.616852 98.378365 104.43846 107.19997 112.24003 116.62178 122.68188 125.44338 130.47041 135.49745 139.8792 144.90623 150.96632 155.99336 160.45927 163.16068 168.20073 172.58247 178.64258 181.99626 186.97621 190.3299 196.39 199.1515 204.19157 208.65749 214.65746 221.90894 225.26262 231.86279 237.44093 242.46797 248.60722 254.66731 262.34866 266.79053 270.1442 275.17123 279.63715 282.39868 288.45877 292.92468 297.95172 302.97876 309.03885 311.74023 316.7803 321.24622 327.3063 330.06781 332.82932 337.86938 342.3353 346.80121 350.15491 352.85629 357.89636">In Figure 4.5 we plot the index value for the HICPxT market and the linearly </tspan><tspan
         id="tspan266"
         y="80.99968"
         x="0 2.774538 7.8145981 10.589136 15.026994 18.352633 23.35161 28.39167 31.153181 35.591042 38.365578 42.803436 47.843494 51.563923 54.889561 59.327419 62.653057 67.090912 70.41655 74.854408 79.89447 84.332329 88.770187 92.490608 97.489594 102.52965 110.21098 115.25105 119.6889 123.01454 126.9013 130.62172 135.05959 138.94633 142.8331 147.87315 152.31102 155.08556 159.52341 162.29794 166.73581 171.77586 175.43617 182.65959 185.43413 188.20866 193.24873 196.96915 199.74368 204.78375 209.2216 212.94203 220.16545 227.38887 233.50006 238.54013 241.31467 243.80864 247.52907 250.85471 255.89478 259.55508 264.59512 267.89471 272.93478 277.37665 280.70227 284.4227 287.19724 292.19623 295.91666 300.95673 305.39859 308.17313 311.89355 314.66809 319.70813 324.146 327.86642 331.19205 335.62991 338.40445 342.84232 345.61685 348.39139 353.43146 357.86932">interpolated reference numbers associated with the OAT€i. In order to get the relative </tspan></text>
<path
       id="path270"
       style="fill:#000000;fill-opacity:1;fill-rule:nonzero;stroke:none"
       d="m 190.8,86.12 h 144 v 0.42001 h -144 z" /><text
       id="text274"
       style="font-style:italic;font-variant:normal;font-weight:normal;font-stretch:normal;font-size:4.5px;font-family:Arial;-inkscape-font-specification:Arial-ItalicMT;writing-mode:lr-tb;fill:#000000;fill-opacity:1;fill-rule:nonzero;stroke:none"
       transform="matrix(1,0,0,-1,190.8,78.9803)"><tspan
         id="tspan272"
         y="0"
         x="0 2.5191">13</tspan></text>
<text
       id="text280"
       style="font-style:italic;font-variant:normal;font-weight:normal;font-stretch:normal;font-size:7.01999998px;font-family:Arial;-inkscape-font-specification:Arial-ItalicMT;writing-mode:lr-tb;fill:#000000;fill-opacity:1;fill-rule:nonzero;stroke:none"
       transform="matrix(1,0,0,-1,199.80279,75.5003)"><tspan
         id="tspan276"
         y="0"
         x="0 4.6858501 8.5924797 12.49911 14.420484 16.375553 20.282185 24.188814 26.110188 30.016817 33.923447 37.436958 41.34359 47.194759 51.033997 54.932903 56.887974 58.869019 61.149113 66.188072 70.094704 75.166649 77.147697 79.10276 83.009392 84.930771 88.444275 92.350906 93.849678 97.389862 101.29649 102.85844 106.69769 108.67873 112.51797 114.49901 118.01252 121.85175 125.36526 129.2719 131.19327 133.14835 134.7103 138.61691 143.5955 147.10901 149.09006 152.99669 156.83592 158.81697 160.37892 164.21815 166.17323 167.73518 171.57442 173.55547 175.11742 179.02403 182.86328 185.20305 186.765 188.32695 192.23358 195.74709 199.65372 203.49295 205.474 209.38063 210.94258 212.44135 214.42239 217.9359 220.15562 222.13667 226.0433 229.94992">See the document “How to calculate cash flows on inflation-linked gilts” on </tspan><tspan
         id="tspan278"
         y="8.0400057"
         x="-0.002808 3.875742 5.8567858 7.8378301 11.677068 13.604058 15.585102 17.566147 22.610016 27.653887 32.697758 34.678799 38.55735 44.38044 48.258991 50.240032 54.118584 57.997135 61.537319 63.518364 67.396912 70.882347 72.863388 76.762299 78.296165 79.830032 81.757027 85.242455 87.223503 88.75737 92.635918 96.514473 100.39302 103.9332 105.46708 107.00095 110.87739 114.41758 116.34737 118.27717 122.15853 123.69521 125.23189 129.11325 131.09428 134.93353 136.91457 142.73415 144.65552 146.63657 150.53548 152.85138 154.83241 158.71378 162.59514 164.57617 168.45753 169.99422 171.5309 175.41225 179.29361 181.27466 185.15601 188.6962 192.57756 198.40346 202.28481 203.82149 207.70285 211.19109 213.17213">http://www.dmo.gov.uk/gilts/indexlink/f2lin.htm for detailed examples. </tspan></text>
<text
       id="text284"
       style="font-style:italic;font-variant:normal;font-weight:normal;font-stretch:normal;font-size:4.5px;font-family:Arial;-inkscape-font-specification:Arial-ItalicMT;writing-mode:lr-tb;fill:#000000;fill-opacity:1;fill-rule:nonzero;stroke:none"
       transform="matrix(1,0,0,-1,190.8,62.9003)"><tspan
         id="tspan282"
         y="0"
         x="0 2.5191">14</tspan></text>
<text
       id="text288"
       style="font-style:italic;font-variant:normal;font-weight:normal;font-stretch:normal;font-size:7.01999998px;font-family:Arial;-inkscape-font-specification:Arial-ItalicMT;writing-mode:lr-tb;fill:#000000;fill-opacity:1;fill-rule:nonzero;stroke:none"
       transform="matrix(1,0,0,-1,199.80279,59.4203)"><tspan
         id="tspan286"
         y="0"
         x="0 5.0607181 8.9561157 12.851514 16.746912 20.642309 22.193027 26.088427 29.983824 31.964869 37.025585 40.920982 44.816383 46.315151 48.296196 53.356915 57.252312 59.196152 63.091549 65.421486 69.316887 71.297928 75.972549 79.867943 83.707184 87.606087 91.108368 93.089409 95.41935 100.48006 105.54079 110.2154 113.71768 115.99778 117.94161">Canadian Real Return Bonds (RRBs). </tspan></text>
<text
       id="text312"
       style="font-style:italic;font-variant:normal;font-weight:normal;font-stretch:normal;font-size:10.02000046px;font-family:'Times New Roman';-inkscape-font-specification:TimesNewRomanPS-ItalicMT;writing-mode:lr-tb;fill:#004538;fill-opacity:1;fill-rule:nonzero;stroke:none"
       transform="matrix(1,0,0,-1,58.38,667.4003)"><tspan
         id="tspan290"
         y="0"
         x="0 6.6612959 11.701356 16.689312 21.677267 26.717327 31.705284 34.225315 36.988831 42.028889 44.792404 48.66814 53.656097 58.644054 63.684113 68.110947 72.537788 77.525742 80.045769 85.03373 87.553757 92.593819 97.035683 103.63586">Canada introduced a new </tspan><tspan
         id="tspan292"
         y="12.54003"
         x="15.24042 22.455822 26.885664 29.652185 34.643147 39.683208 44.663147 47.183178 49.949699 54.989761 58.868504 61.388531 65.818375 70.809334 78.024734 83.015701 88.055763 90.822281 93.588806 98.579765 103.61983">method for computing </tspan><tspan
         id="tspan294"
         y="25.019939"
         x="38.940727 43.980785 48.40662 52.832455 56.707188 61.74725 66.189117 71.176071 73.696098 76.458611 81.498672 84.261185 88.687019 92.561752 96.987587 100.86232 103.62484">accrued interest </tspan><tspan
         id="tspan296"
         y="105.84026"
         x="10.800558 16.921776 21.369654 24.154213 28.602091 32.498867 36.946747 41.955746 46.403622 50.851501 53.311409 58.320408 63.329407 70.562843 75.571838 80.019722 83.916496 87.813278 90.273186 95.282181 99.178963 103.62684">Reference numbers are </tspan><tspan
         id="tspan298"
         y="118.38029"
         x="12.180312 16.627188 21.635183 28.86762 33.875614 38.883614 41.667168 46.114044 51.12204 53.642071 56.343464 61.383522 65.279297 67.799332 72.181076 77.22113 81.668007 86.676003 89.196037 94.204033 99.212029 103.65891">computed for each day </tspan><tspan
         id="tspan300"
         y="-79.799278"
         x="12.47991 18.046021 23.05101 27.494881 29.95479 37.184219 43.862549 46.32246 51.32745 55.220219 59.601967 64.642029 67.101936 72.106926 77.111916 79.631943 84.075813 86.856369 91.861359 96.866348 99.646896">The UK used an eight-</tspan><tspan
         id="tspan302"
         y="-67.259247"
         x="-11.999952 -4.7414641 0.23847599 5.2785358 8.0400476 13.024998 15.545028 18.305538 23.290487 28.330547 30.850578 33.611088 38.596039 41.11607 46.101017 51.141079 56.126026 61.166088 63.926598 68.350426 70.810341 75.850395 80.274231 84.698059 88.570786 93.610847 98.052711 103.03767">month lag to handle accrued </tspan><tspan
         id="tspan304"
         y="-54.779339"
         x="73.019745 75.791283 80.831337 83.602875 88.037727 91.921478 96.356331 100.24008 103.01161">interest </tspan><tspan
         id="tspan306"
         y="481.74057"
         x="4.1993818 10.338636 15.318576 20.34561 25.372644 29.211306 31.731337 36.758369 40.597031 45.062946 47.522858 52.549889 57.529831 62.556866 65.258255 69.724167 74.751205 77.271233 80.032745 85.012688 87.532715 91.447533 95.829277 100.85631 103.61782">Bonds are quoted in real </tspan><tspan
         id="tspan308"
         y="494.28058"
         x="-10.56108 -7.80057 -3.3597059 0.55510801 7.806582 11.721396 14.24343 16.702337 21.681276 26.720333 29.480844 31.999872 37.026905 41.492821 45.873566 50.852501 53.371529 56.132038 61.171097 63.630005 68.657043 73.122955 75.581863 80.608894 85.635933 88.336319 93.363358 95.882385 98.642891 103.62183">terms, but need to be paid in </tspan><tspan
         id="tspan310"
         y="506.7605"
         x="46.139095 51.179153 56.159096 63.369488 66.130997 71.116951 76.157013 78.918526 81.438553 84.200066 88.624893 92.498627 99.709023 103.58275">nominal terms </tspan></text>
<path
       id="path314"
       style="fill:none;stroke:#010101;stroke-width:0.75;stroke-linecap:round;stroke-linejoin:round;stroke-miterlimit:10;stroke-dasharray:none;stroke-opacity:1"
       d="M 198.42,281.06 H 468.6 m -270.12,4.32 v -8.52" /><text
       id="text318"
       style="font-variant:normal;font-weight:normal;font-stretch:normal;font-size:10.5px;font-family:'Times New Roman';-inkscape-font-specification:TimesNewRomanPSMT;writing-mode:lr-tb;fill:#000000;fill-opacity:1;fill-rule:nonzero;stroke:none"
       transform="matrix(1,0,0,-1,190.8,262.7603)"><tspan
         id="tspan316"
         y="0"
         x="0 5.8537502 10.5315 15.79725">Feb </tspan></text>
<path
       id="path320"
       style="fill:none;stroke:#010101;stroke-width:0.75;stroke-linecap:round;stroke-linejoin:round;stroke-miterlimit:10;stroke-dasharray:none;stroke-opacity:1"
       d="m 249.54,285.38 v -8.52" /><text
       id="text324"
       style="font-variant:normal;font-weight:normal;font-stretch:normal;font-size:10.5px;font-family:'Times New Roman';-inkscape-font-specification:TimesNewRomanPSMT;writing-mode:lr-tb;fill:#000000;fill-opacity:1;fill-rule:nonzero;stroke:none"
       transform="matrix(1,0,0,-1,241.02,262.7603)"><tspan
         id="tspan322"
         y="0"
         x="0 9.3565502 14.0406">Mar</tspan></text>
<path
       id="path326"
       style="fill:none;stroke:#010101;stroke-width:0.75;stroke-linecap:round;stroke-linejoin:round;stroke-miterlimit:10;stroke-dasharray:none;stroke-opacity:1"
       d="m 300.54,285.38 v -8.52" /><text
       id="text330"
       style="font-variant:normal;font-weight:normal;font-stretch:normal;font-size:10.5px;font-family:'Times New Roman';-inkscape-font-specification:TimesNewRomanPSMT;writing-mode:lr-tb;fill:#000000;fill-opacity:1;fill-rule:nonzero;stroke:none"
       transform="matrix(1,0,0,-1,292.62,262.7603)"><tspan
         id="tspan328"
         y="0"
         x="0 7.5579 12.83835">Apr</tspan></text>
<path
       id="path332"
       style="fill:none;stroke:#010101;stroke-width:0.75;stroke-linecap:round;stroke-linejoin:round;stroke-miterlimit:10;stroke-dasharray:none;stroke-opacity:1"
       d="m 351.54,285.38 v -8.52" /><text
       id="text336"
       style="font-variant:normal;font-weight:normal;font-stretch:normal;font-size:10.5px;font-family:'Times New Roman';-inkscape-font-specification:TimesNewRomanPSMT;writing-mode:lr-tb;fill:#000000;fill-opacity:1;fill-rule:nonzero;stroke:none"
       transform="matrix(1,0,0,-1,342.18,262.7603)"><tspan
         id="tspan334"
         y="0"
         x="0 9.3565502 14.0406">May</tspan></text>
<path
       id="path338"
       style="fill:none;stroke:#010101;stroke-width:0.75;stroke-linecap:round;stroke-linejoin:round;stroke-miterlimit:10;stroke-dasharray:none;stroke-opacity:1"
       d="m 402.96,285.38 v -8.52" /><text
       id="text342"
       style="font-variant:normal;font-weight:normal;font-stretch:normal;font-size:10.5px;font-family:'Times New Roman';-inkscape-font-specification:TimesNewRomanPSMT;writing-mode:lr-tb;fill:#000000;fill-opacity:1;fill-rule:nonzero;stroke:none"
       transform="matrix(1,0,0,-1,395.82,262.7603)"><tspan
         id="tspan340"
         y="0"
         x="0 4.0970998 9.3597002">Jun</tspan></text>
<path
       id="path344"
       style="fill:none;stroke:#010101;stroke-width:0.75;stroke-linecap:round;stroke-linejoin:round;stroke-miterlimit:10;stroke-dasharray:none;stroke-opacity:1"
       d="m 453.96,285.38 v -8.52" /><text
       id="text352"
       style="font-variant:normal;font-weight:normal;font-stretch:normal;font-size:10.5px;font-family:'Times New Roman';-inkscape-font-specification:TimesNewRomanPSMT;writing-mode:lr-tb;fill:#7e8585;fill-opacity:1;fill-rule:nonzero;stroke:none"
       transform="matrix(1,0,0,-1,448.08,262.7603)"><tspan
         id="tspan346"
         y="0"
         x="0 4.1023502 9.3702002 12.30705">Jul </tspan><tspan
         id="tspan348"
         y="-34.079849"
         x="-198.48045 -192.65926 -188.01405 -182.7336 -180.0939 -174.8607 -169.58025 -164.34705 -161.73885 -156.50565 -151.2252">Feb 186.20 </tspan><tspan
         id="tspan350"
         y="-55.38015"
         x="-27.4806 -18.12405 -13.44 -9.9214497 -5.2374001 -0.01785 2.62185 7.8414001 13.11345 18.3855 20.965349 26.2374 31.456949">March 187.40 </tspan></text>
<path
       id="path354"
       style="fill:none;stroke:#ffffff;stroke-width:0.75;stroke-linecap:round;stroke-linejoin:miter;stroke-miterlimit:8;stroke-dasharray:none;stroke-opacity:1"
       d="m 302.76,248.48 h -42.48 v -19.74 h 42.48 z m -42.48,0 z" /><text
       id="text360"
       style="font-variant:normal;font-weight:normal;font-stretch:normal;font-size:7.5px;font-family:'Times New Roman';-inkscape-font-specification:TimesNewRomanPSMT;writing-mode:lr-tb;fill:#7e8585;fill-opacity:1;fill-rule:nonzero;stroke:none"
       transform="matrix(1,0,0,-1,268.56,241.2803)"><tspan
         id="tspan356"
         y="0"
         x="0 4.197 7.4984999 11.2755 13.1355 18.115499 22.313999 24.838499">Feb CPI </tspan><tspan
         id="tspan358"
         y="8.8199997"
         x="2.04 4.5599999 7.8614998 9.9630003 13.2645 16.566 19.504499 22.806">release </tspan></text>
<path
       id="path362"
       style="fill:#808585;fill-opacity:1;fill-rule:nonzero;stroke:none"
       d="m 283.2,251.36 v 24.72 c 0,0.18 0.12,0.36 0.36,0.36 0.18,0 0.36,-0.18 0.36,-0.36 v -24.72 c 0,-0.24 -0.18,-0.36 -0.36,-0.36 -0.24,0 -0.36,0.12 -0.36,0.36 z m -2.64,23.7 3,6 3,-6" /><path
       id="path364"
       style="fill:none;stroke:#ffffff;stroke-width:0.75;stroke-linecap:round;stroke-linejoin:miter;stroke-miterlimit:8;stroke-dasharray:none;stroke-opacity:1"
       d="m 352.32,248.48 h -34.86 v -19.74 h 34.86 z m -34.86,0 z" /><text
       id="text370"
       style="font-variant:normal;font-weight:normal;font-stretch:normal;font-size:7.5px;font-family:'Times New Roman';-inkscape-font-specification:TimesNewRomanPSMT;writing-mode:lr-tb;fill:#7e8585;fill-opacity:1;fill-rule:nonzero;stroke:none"
       transform="matrix(1,0,0,-1,321.36,241.2803)"><tspan
         id="tspan366"
         y="0"
         x="0 6.6697502 10.002 12.50175 14.36175 19.366501 23.53875">Mar CPI</tspan><tspan
         id="tspan368"
         y="8.8199997"
         x="2.6400001 5.1599998 8.4615002 10.563 13.8645 17.166 20.1045 23.406">release </tspan></text>
<path
       id="path372"
       style="fill:#808585;fill-opacity:1;fill-rule:nonzero;stroke:none"
       d="m 336.54,251.36 v 24.72 c 0,0.18 0.18,0.36 0.36,0.36 0.18,0 0.36,-0.18 0.36,-0.36 v -24.72 c 0,-0.24 -0.18,-0.36 -0.36,-0.36 -0.18,0 -0.36,0.12 -0.36,0.36 z m -2.64,23.7 3,6 3,-6" /><path
       id="path374"
       style="fill:#808585;fill-opacity:1;fill-rule:nonzero;stroke:none"
       d="m 302.82,297.44 h 48.72 c 0.24,0 0.36,-0.18 0.36,-0.36 v -6.66 c 0,-0.24 -0.12,-0.42 -0.36,-0.42 -0.18,0 -0.36,0.18 -0.36,0.42 v 6.66 l 0.36,-0.42 h -48.72 c -0.24,0 -0.42,0.18 -0.42,0.42 0,0.18 0.18,0.36 0.42,0.36 z m 51.72,-6.06 -3,-6 -3,6" /><path
       id="path376"
       style="fill:#808585;fill-opacity:1;fill-rule:nonzero;stroke:none"
       d="m 413.46,316.28 h -10.5 l 0.36,0.36 v -26.22 c 0,-0.24 -0.18,-0.42 -0.36,-0.42 -0.24,0 -0.36,0.18 -0.36,0.42 v 26.22 c 0,0.24 0.12,0.36 0.36,0.36 h 10.5 c 0.18,0 0.36,-0.12 0.36,-0.36 0,-0.18 -0.18,-0.36 -0.36,-0.36 z m -7.5,-24.9 -3,-6 -3,6" /><path
       id="path378"
       style="fill:none;stroke:#010101;stroke-width:0.75;stroke-linecap:round;stroke-linejoin:round;stroke-miterlimit:10;stroke-dasharray:none;stroke-opacity:1"
       d="m 379.8,350.48 c 0,-6.18 -4.68,-11.28 -10.5,-11.28 h -42 c -5.82,0 -10.5,-5.04 -10.5,-11.22 0,6.18 -4.68,11.22 -10.5,11.22 h -42 c -5.82,0 -10.5,5.1 -10.5,11.28 m 124.32,-65.1 v -8.52" /><text
       id="text382"
       style="font-variant:normal;font-weight:normal;font-stretch:normal;font-size:10.5px;font-family:'Times New Roman';-inkscape-font-specification:TimesNewRomanPSMT;writing-mode:lr-tb;fill:#000000;fill-opacity:1;fill-rule:nonzero;stroke:none"
       transform="matrix(1,0,0,-1,358.02,293.6003)"><tspan
         id="tspan380"
         y="0"
         x="0 9.3607502 14.049 19.268551 21.908251 27.1845">May 12</tspan></text>
<text
       id="text386"
       style="font-variant:normal;font-weight:normal;font-stretch:normal;font-size:7.01999998px;font-family:'Times New Roman';-inkscape-font-specification:TimesNewRomanPSMT;writing-mode:lr-tb;fill:#000000;fill-opacity:1;fill-rule:nonzero;stroke:none"
       transform="matrix(1,0,0,-1,390.42,298.5804)"><tspan
         id="tspan384"
         y="0"
         x="0">t</tspan></text>
<g
       id="g388"><g
         clip-path="url(#clipPath394)"
         id="g390"><text
           id="text398"
           style="font-variant:normal;font-weight:normal;font-stretch:normal;font-size:7.01999998px;font-family:'Times New Roman';-inkscape-font-specification:TimesNewRomanPSMT;writing-mode:lr-tb;fill:#000000;fill-opacity:1;fill-rule:nonzero;stroke:none"
           transform="matrix(1,0,0,-1,392.34,298.5804)"><tspan
             id="tspan396"
             y="0"
             x="0">h</tspan></text>
</g></g><path
       id="path400"
       style="fill:#010101;fill-opacity:1;fill-rule:nonzero;stroke:none"
       d="m 377.16,303.32 v 12.3 l 0.36,-0.42 h -60.66 c -0.24,0 -0.36,0.18 -0.36,0.42 v 7.32 c 0,0.24 0.12,0.36 0.36,0.36 0.18,0 0.36,-0.12 0.36,-0.36 v -7.32 l -0.36,0.36 h 60.66 c 0.24,0 0.42,-0.18 0.42,-0.36 v -12.3 c 0,-0.24 -0.18,-0.42 -0.42,-0.42 -0.18,0 -0.36,0.18 -0.36,0.42 z m -63.3,18.66 3,6 3,-6" /><path
       id="path402"
       style="fill:none;stroke:#000000;stroke-width:0.40099999;stroke-linecap:round;stroke-linejoin:round;stroke-miterlimit:10;stroke-dasharray:none;stroke-opacity:1"
       d="m 288.78,358.46 h 30.24" /><text
       id="text406"
       style="font-variant:normal;font-weight:normal;font-stretch:normal;font-size:12.75650024px;font-family:Symbol;-inkscape-font-specification:SymbolMT;writing-mode:lr-tb;fill:#000000;fill-opacity:1;fill-rule:nonzero;stroke:none"
       transform="matrix(0.74502411,0,0,-1,320.64,356.1203)"><tspan
         id="tspan404"
         y="0"
         x="0 85.527229">()</tspan></text>
<text
       id="text416"
       style="font-variant:normal;font-weight:normal;font-stretch:normal;font-size:9.66189957px;font-family:'Times New Roman';-inkscape-font-specification:TimesNewRomanPSMT;writing-mode:lr-tb;fill:#000000;fill-opacity:1;fill-rule:nonzero;stroke:none"
       transform="matrix(1,0,0,-1,357.54,356.0603)"><tspan
         id="tspan408"
         y="0"
         x="0 4.8309498 9.6618996 14.49285 16.908325 21.739275 -34.92004 -30.089088 -25.258139 -20.427189 -18.011713 -13.180764">186.20187.40</tspan><tspan
         id="tspan410"
         y="7.5604367"
         x="-58.080578 -53.24963">31</tspan><tspan
         id="tspan412"
         y="-6.1797514"
         x="-47.040894 -42.209942 -68.220741 -65.003334 -60.172382">1)(12</tspan><tspan
         id="tspan414"
         y="2.1453729e-15"
         x="-105.0007 -100.16975 -95.338799 -90.507851 -88.092377 -83.261421">186.20</tspan></text>
<text
       id="text420"
       style="font-variant:normal;font-weight:normal;font-stretch:normal;font-size:9.66189957px;font-family:Symbol;-inkscape-font-specification:SymbolMT;writing-mode:lr-tb;fill:#000000;fill-opacity:1;fill-rule:nonzero;stroke:none"
       transform="matrix(1,0,0,-1,351.11967,356.0603)"><tspan
         id="tspan418"
         y="0"
         x="0">−</tspan></text>
<g
       id="g422"><g
         clip-path="url(#clipPath428)"
         id="g424"><text
           id="text432"
           style="font-variant:normal;font-weight:normal;font-stretch:normal;font-size:9.66189957px;font-family:Symbol;-inkscape-font-specification:SymbolMT;writing-mode:lr-tb;fill:#000000;fill-opacity:1;fill-rule:nonzero;stroke:none"
           transform="matrix(1,0,0,-1,304.14,362.2403)"><tspan
             id="tspan430"
             y="0"
             x="0">−</tspan></text>
</g></g><text
       id="text436"
       style="font-variant:normal;font-weight:normal;font-stretch:normal;font-size:9.66189957px;font-family:Symbol;-inkscape-font-specification:SymbolMT;writing-mode:lr-tb;fill:#000000;fill-opacity:1;fill-rule:nonzero;stroke:none"
       transform="matrix(1,0,0,-1,281.04,356.0603)"><tspan
         id="tspan434"
         y="0"
         x="0">+</tspan></text>
</g></svg>