<?xml version="1.0" encoding="UTF-8" standalone="no"?>
<svg
   viewBox="0 0 438.10934 236.50932"
   height="236.50932"
   width="438.10934"
   xml:space="preserve"
   id="svg2"
   version="1.1"
   sodipodi:docname="InflationSwap_TermSheet2.svg"
   inkscape:version="1.1.1 (3bf5ae0d25, 2021-09-20)"
   xmlns:inkscape="http://www.inkscape.org/namespaces/inkscape"
   xmlns:sodipodi="http://sodipodi.sourceforge.net/DTD/sodipodi-0.dtd"
   xmlns="http://www.w3.org/2000/svg"
   xmlns:svg="http://www.w3.org/2000/svg"
   xmlns:rdf="http://www.w3.org/1999/02/22-rdf-syntax-ns#"
   xmlns:cc="http://creativecommons.org/ns#"
   xmlns:dc="http://purl.org/dc/elements/1.1/"><sodipodi:namedview
     id="namedview1208"
     pagecolor="#ffffff"
     bordercolor="#666666"
     borderopacity="1.0"
     inkscape:pageshadow="2"
     inkscape:pageopacity="0.0"
     inkscape:pagecheckerboard="0"
     showgrid="false"
     inkscape:zoom="4.4577912"
     inkscape:cx="207.83836"
     inkscape:cy="115.86456"
     inkscape:window-width="2560"
     inkscape:window-height="1369"
     inkscape:window-x="-8"
     inkscape:window-y="270"
     inkscape:window-maximized="1"
     inkscape:current-layer="g10" /><metadata
     id="metadata8"><rdf:RDF><cc:Work
         rdf:about=""><dc:format>image/svg+xml</dc:format><dc:type
           rdf:resource="http://purl.org/dc/dcmitype/StillImage" /></cc:Work></rdf:RDF></metadata><defs
     id="defs6"><clipPath
       id="clipPath14"
       clipPathUnits="userSpaceOnUse"><path
         id="path12"
         d="M 0,0 H 595 V 842 H 0 Z" /></clipPath><clipPath
       id="clipPath218"
       clipPathUnits="userSpaceOnUse"><path
         style="clip-rule:evenodd"
         id="path216"
         d="m 190.08,415.04 v -13.2 l 210.18,0.06 H 190.8 v 13.14" /></clipPath><clipPath
       id="clipPath234"
       clipPathUnits="userSpaceOnUse"><path
         style="clip-rule:evenodd"
         id="path232"
         d="m 399.54,415.04 v -13.2 l 165.9,0.06 H 400.26 v 13.14" /></clipPath></defs><g
     clip-path="url(#clipPath14)"
     transform="matrix(1.3333333,0,0,-1.3333333,-253.52667,915.39467)"
     id="g10"><text
   id="text18"
   style="font-variant:normal;font-weight:bold;font-stretch:normal;font-size:9px;font-family:Arial;-inkscape-font-specification:Arial-BoldMT;writing-mode:lr-tb;fill:#000000;fill-opacity:1;fill-rule:nonzero;stroke:none"
   transform="matrix(1,0,0,-1,46.62,790.5203)"><tspan
     id="tspan16"
     y="0"
     x="0 5.5026002 10.4814 15.984 23.9886 28.9674 34.488899 37.0107 43.512299 47.016899 52.519501 55.5201 61.022701 66.001503 69.506104">Lehman Brothers</tspan></text>
<text
   id="text22"
   style="font-variant:normal;font-weight:normal;font-size:9px;font-family:Frutiger;-inkscape-font-specification:Frutiger-Roman;writing-mode:lr-tb;fill:#000000;fill-opacity:1;fill-rule:nonzero;stroke:none"
   transform="matrix(1,0,0,-1,125.46,790.46)"><tspan
     id="tspan20"
     y="0"
     x="0">|</tspan></text>
<text
   id="text26"
   style="font-variant:normal;font-weight:normal;font-stretch:normal;font-size:9px;font-family:Arial;-inkscape-font-specification:ArialMT;writing-mode:lr-tb;fill:#000000;fill-opacity:1;fill-rule:nonzero;stroke:none"
   transform="matrix(1,0,0,-1,129.6,790.46)"><tspan
     id="tspan24"
     y="0"
     x="0 2.493 7.4879999 9.9809999 11.97 16.965 19.458 21.447001 26.441999 31.437 33.958801 40.497299 45.476101 48.4641 50.453098 54.944099 59.9823 62.4753 64.464302 68.955299 73.950302 78.441299 80.963097 86.9571 91.448097 96.4431 98.432098 103.4703 105.4485 110.4435 115.4817 120.5199">Inflation Derivatives Explained </tspan></text>
<path
   id="path28"
   style="fill:#000000;fill-opacity:1;fill-rule:nonzero;stroke:none"
   d="m 45.18,786.8 h 78.12 v 0.47998 H 45.18 Z" /><path
   id="path30"
   style="fill:#000000;fill-opacity:1;fill-rule:nonzero;stroke:none"
   d="m 122.58,786.8 h 7.02 v 0.47998 h -7.02 z" /><path
   id="path32"
   style="fill:#000000;fill-opacity:1;fill-rule:nonzero;stroke:none"
   d="m 128.88,786.8 h 0.48 v 0.47998 h -0.48 z" /><path
   id="path34"
   style="fill:#000000;fill-opacity:1;fill-rule:nonzero;stroke:none"
   d="m 129.36,787.28 h 419.1 v -0.48 h -419.1" /><text
   id="text38"
   style="font-variant:normal;font-weight:normal;font-stretch:normal;font-size:9px;font-family:Arial;-inkscape-font-specification:ArialMT;writing-mode:lr-tb;fill:#000000;fill-opacity:1;fill-rule:nonzero;stroke:none"
   transform="matrix(1,0,0,-1,46.8,43.1)"><tspan
     id="tspan36"
     y="0"
     x="0 4.4793 9.4625998 11.5011 15.8814 18.462601 23.4459 28.4841 33.4674">July 2005</tspan></text>
<text
   id="text42"
   style="font-variant:normal;font-weight:normal;font-stretch:normal;font-size:9px;font-family:Arial;-inkscape-font-specification:ArialMT;writing-mode:lr-tb;fill:#000000;fill-opacity:1;fill-rule:nonzero;stroke:none"
   transform="matrix(1,0,0,-1,540.8397,43.1)"><tspan
     id="tspan40"
     y="0"
     x="0 4.9787998">26</tspan></text>
<path
   id="path44"
   style="fill:#000000;fill-opacity:1;fill-rule:nonzero;stroke:none"
   d="m 45.3,52.46 h 504.84 v 0.48001 H 45.3 Z" /><text
   id="text52"
   style="font-variant:normal;font-weight:normal;font-stretch:normal;font-size:10.02000046px;font-family:'Times New Roman';-inkscape-font-specification:TimesNewRomanPSMT;writing-mode:lr-tb;fill:#000000;fill-opacity:1;fill-rule:nonzero;stroke:none"
   transform="matrix(1,0,0,-1,190.8,748.2803)"><tspan
     id="tspan46"
     y="0"
     x="0 7.2234182 12.263478 15.038016 18.038004 22.475863 25.250401 28.024939 31.085047 38.766376 43.208244 46.533882 51.57394 56.011799 58.786339 62.673096 65.67308 70.713142 74.611923 79.049782 82.049774 84.82431 89.864372 94.302231 97.302216 101.74007 106.78014 111.77911 116.77809 121.21595 126.256 129.03055 131.80508 136.84514 141.88521 144.88519 147.65973 152.69978 155.69978 160.69876 165.13661 170.13559 173.13557 175.95721 180.99727 183.99725 186.7718 191.20966 194.53529 202.21663 206.17552 209.17552 214.21558 217.57529 220.57527 223.34981 228.38986 233.38884 237.82671 242.86676 245.86674 248.6413 253.07915 258.1192 262.56107 265.3356 269.22238 271.71634 274.71634 280.82755 285.86758 290.30545 293.24533 301.02985 305.46771 308.79337 313.8334 318.27127 321.04581 324.04581 327.93256 330.70709 335.14496 340.185 345.22507 349.60681 352.93246 357.9725">Not all markets use the convention to pay in terms of index levels. The market standard </tspan><tspan
     id="tspan48"
     y="12.54003"
     x="0 3.318624 8.3105879 11.629212 14.209362 16.976887 22.016947 26.44779 29.027941 34.581024 37.899647 42.33049 47.370552 51.801395 56.841457 59.361485 64.914574 71.579872 74.898499 81.563805 87.116882 90.435509 93.015663 97.446503 102.43847 107.47853 109.99856 117.21496 122.76804 126.08667 132.75197 138.30505 141.62369 144.20383 146.97136 150.8511 153.43124 156.19878 161.19073 163.71077 168.75082 173.19269 176.51132 179.27884 184.31891 188.76077 191.34091 194.10844 199.1485 203.57935 206.1595 211.19955 215.64142 220.56125 225.6013 230.64136 233.40288 235.9229 240.96297 245.9429 248.52306 251.29057 256.33063 260.76147 263.34164 266.10916 271.14923 274.46783 277.23535 281.6662 284.43375 287.20126 292.19321 297.18518 299.76532 302.53287 306.96371 312.00375 314.58392 317.28531 322.32538 324.90552 327.67303 332.10388 335.42252 343.10385 346.98358 349.56372 354.60379 357.84326">for the French FR-CPI and US-CPI is to define the payout on the inflation leg in terms of </tspan><tspan
     id="tspan50"
     y="25.019939"
     x="0 3.350688 7.8135958 11.164284 15.54603 18.896717 23.359627 28.383654 32.846561 37.22831 39.748337 44.728279 49.768337 57.509789 62.54985 67.012756 70.363449 74.20211 76.722137 79.182045 86.430519 88.950546 91.712059 96.153923 99.504616 107.18594 109.70597 113.61778 118.59772 123.06063 127.52354 130.28505 132.80508 140.05354 145.03349 150.05751 152.81903 157.79897 160.319 163.08051 168.06046 173.08447 178.06442 180.58444 183.34596 186.10747 191.14754 195.61044 198.13046 200.89198 205.93204 210.39494 212.85486 217.83479 222.87486 227.33777 229.8578 233.69646 238.67641 243.70042 250.89879 255.92282 258.44284 261.14426 266.1843 268.70435 274.28949 276.99088 282.01489 286.99484 290.34552 294.80844 297.26834 302.29239 304.75229 309.77631 312.29535">reference numbers. A term sheet would look like the one shown in Figure 5.2. </tspan></text>
<text
   id="text56"
   style="font-variant:normal;font-weight:bold;font-stretch:normal;font-size:9px;font-family:Arial;-inkscape-font-specification:Arial-BoldMT;writing-mode:lr-tb;fill:#000000;fill-opacity:1;fill-rule:nonzero;stroke:none"
   transform="matrix(1,0,0,-1,190.8,694.7003)"><tspan
     id="tspan54"
     y="0"
     x="0 5.5215001 8.0432997 13.5648 19.0863 22.5648 27.558001 30.0798 35.073002 37.564201 42.5574 45.048599 54.0504 60.042599 65.035797 70.028999 78.019203 83.540703 86.0625 91.055702 93.577499 99.098999 102.0987 104.6205 109.6137 112.1355 115.1217 120.1149 123.6051 131.59531 134.1171 139.11031 144.63181 149.67 154.6488 157.63499 160.1568 163.14301 168.66451 172.15469 174.6765 181.1637 187.1559 189.6777 196.1649 202.1571 204.6483 207.1701 211.6593 216.6525 220.1427 225.6642 228.65041 233.6886 239.2101 244.7316 250.19279 255.71429 261.23581 263.6973 266.18851 271.70999 274.6962 277.18741 282.1806 285.16681 287.65799 293.14621 298.66769 301.18951 306.0477 313.24951 318.168 323.68951">Figure 5.2. Example of a term sheet for US CPI zero-coupon inflation swap </tspan></text>
<path
   id="path58"
   style="fill:#ececec;fill-opacity:1;fill-rule:nonzero;stroke:none"
   d="M 189.3,686.6 H 550.14 V 668.12 H 189.3" /><text
   id="text62"
   style="font-variant:normal;font-weight:normal;font-stretch:normal;font-size:10.02000046px;font-family:'Times New Roman';-inkscape-font-specification:TimesNewRomanPSMT;writing-mode:lr-tb;fill:#000000;fill-opacity:1;fill-rule:nonzero;stroke:none"
   transform="matrix(1,0,0,-1,190.8,676.4003)"><tspan
     id="tspan60"
     y="0"
     x="0 7.2093902 12.24945 15.00996 17.77047 22.755421 27.795481 32.237347 34.997856 37.758366 71.958633 76.998688 81.983643 86.96859 92.008652 94.488602 99.528664 104.51361 109.55367 112.03362 117.01857 122.05863 127.09869">Notional: $100,000,000 </tspan></text>
<path
   id="path64"
   style="fill:#ececec;fill-opacity:1;fill-rule:nonzero;stroke:none"
   d="M 189.3,668.12 H 550.14 V 649.58 H 189.3" /><text
   id="text68"
   style="font-variant:normal;font-weight:normal;font-stretch:normal;font-size:10.02000046px;font-family:'Times New Roman';-inkscape-font-specification:TimesNewRomanPSMT;writing-mode:lr-tb;fill:#000000;fill-opacity:1;fill-rule:nonzero;stroke:none"
   transform="matrix(1,0,0,-1,190.8,657.9203)"><tspan
     id="tspan66"
     y="0"
     x="0 3.3496859 8.3296261 13.352652 17.734398 22.757423 25.556009 71.995705 79.243172 84.827316 87.347343 94.043709 99.561729 102.91142 106.211 113.45847 118.97648 126.22395 128.68385 131.98344 137.0235 142.00343 146.98338 150.33307 153.68275 158.0645 163.08752 165.88611 169.79692 174.25882 179.23877 182.59846">Index: US CPI-NSA (non-revised) </tspan></text>
<path
   id="path70"
   style="fill:#ececec;fill-opacity:1;fill-rule:nonzero;stroke:none"
   d="M 189.3,649.58 H 550.14 V 631.1 H 189.3" /><text
   id="text74"
   style="font-variant:normal;font-weight:normal;font-stretch:normal;font-size:10.02000046px;font-family:'Times New Roman';-inkscape-font-specification:TimesNewRomanPSMT;writing-mode:lr-tb;fill:#000000;fill-opacity:1;fill-rule:nonzero;stroke:none"
   transform="matrix(1,0,0,-1,190.8,639.3803)"><tspan
     id="tspan72"
     y="0"
     x="0 5.5861502 10.56609 15.59112 18.94281 23.406719 27.87063 30.572021 72.031776 77.617928 80.37944 83.731125 87.643936 90.405449 92.925484 97.905418 102.88536 107.92542 110.68694 113.44844 117.91235 122.37627 125.13778 127.89928 132.92432 137.94934 140.40926 145.43428 150.41423 152.93427 159.59456 165.71577 171.30193 173.82195 178.20369 182.10248 184.62251 188.46117 193.44112 198.46614 205.66451 210.68954 213.14944 218.12939 223.16945 225.68948 232.34978 235.11128 240.09122 245.13129 252.87274 257.91278 262.37671 265.6763 270.70132 273.22134 279.88165 285.39966 292.64914 299.30942 306.50778 312.02679 319.27628">Source: First publication by BLS as shown on Bloomberg CPURNSA </tspan></text>
<path
   id="path76"
   style="fill:#ececec;fill-opacity:1;fill-rule:nonzero;stroke:none"
   d="M 189.3,631.1 H 550.14 V 612.62 H 189.3" /><text
   id="text80"
   style="font-variant:normal;font-weight:normal;font-stretch:normal;font-size:10.02000046px;font-family:'Times New Roman';-inkscape-font-specification:TimesNewRomanPSMT;writing-mode:lr-tb;fill:#000000;fill-opacity:1;fill-rule:nonzero;stroke:none"
   transform="matrix(1,0,0,-1,190.8,620.9003)"><tspan
     id="tspan78"
     y="0"
     x="0 6.1412578 9.4969559 13.964874 18.993912 23.375658 25.895687 30.924726 35.392643 38.154156 42.596024 45.297413 72.057831 77.086868 82.066803 84.586838 90.176994 94.558739 99.587776 102.88737 107.9164 112.38432 115.74002 120.71996 123.17987 128.15981 133.13976 138.16879 143.19783">Trade date: 10 February 2005 </tspan></text>
<path
   id="path82"
   style="fill:#ececec;fill-opacity:1;fill-rule:nonzero;stroke:none"
   d="M 189.3,612.62 H 550.14 V 594.08 H 189.3" /><text
   id="text86"
   style="font-variant:normal;font-weight:normal;font-stretch:normal;font-size:10.02000046px;font-family:'Times New Roman';-inkscape-font-specification:TimesNewRomanPSMT;writing-mode:lr-tb;fill:#000000;fill-opacity:1;fill-rule:nonzero;stroke:none"
   transform="matrix(1,0,0,-1,190.8,602.4203)"><tspan
     id="tspan84"
     y="0"
     x="0 5.5891562 8.350668 12.817584 16.172279 18.933792 21.45282 26.480856 30.947771 33.709286 38.15115 40.852543 72.051819 77.079849 82.059792 84.578819 90.167976 94.549721 99.577759 102.87734 107.90538 112.3723 115.72699 120.70693 123.16584 128.14578 133.12572 138.15376 143.18179">Start date: 12 February 2005 </tspan></text>
<path
   id="path88"
   style="fill:#ececec;fill-opacity:1;fill-rule:nonzero;stroke:none"
   d="M 189.3,594.08 H 550.14 V 575.6 H 189.3" /><text
   id="text92"
   style="font-variant:normal;font-weight:normal;font-stretch:normal;font-size:10.02000046px;font-family:'Times New Roman';-inkscape-font-specification:TimesNewRomanPSMT;writing-mode:lr-tb;fill:#000000;fill-opacity:1;fill-rule:nonzero;stroke:none"
   transform="matrix(1,0,0,-1,190.8,583.8803)"><tspan
     id="tspan90"
     y="0"
     x="0 6.1412578 11.121198 16.150236 18.610146 23.639185 28.107101 30.868614 35.310478 38.071991 72.031776 77.060814 82.040756 84.560783 90.15094 94.532684 99.561729 102.86131 107.89035 112.35827 115.71397 120.69391 123.15382 128.13376 133.11369 138.14273 143.17177">End date: 12 February 2010 </tspan></text>
<path
   id="path94"
   style="fill:#ececec;fill-opacity:1;fill-rule:nonzero;stroke:none"
   d="M 189.3,575.6 H 550.14 V 557.12 H 189.3" /><text
   id="text98"
   style="font-variant:normal;font-weight:normal;font-stretch:normal;font-size:10.02000046px;font-family:'Times New Roman';-inkscape-font-specification:TimesNewRomanPSMT;writing-mode:lr-tb;fill:#000000;fill-opacity:1;fill-rule:nonzero;stroke:none"
   transform="matrix(1,0,0,-1,190.8,565.4003)"><tspan
     id="tspan96"
     y="0"
     x="0 5.5460701 8.3065796 11.666286 15.565068 18.325579 20.845608 24.205315 26.906706 31.946766 34.708279 39.69323 44.733288 47.493797 71.973663 77.013718 81.99366 87.033722 89.493629 94.478577 99.518639 104.50359 109.48854 114.5286">First fixing: 190.77500 </tspan></text>
<path
   id="path100"
   style="fill:#ececec;fill-opacity:1;fill-rule:nonzero;stroke:none"
   d="m 189.3,557.12 h 360.84 v -20.4 H 189.3" /><text
   id="text104"
   style="font-variant:normal;font-weight:normal;font-stretch:normal;font-size:10.02000046px;font-family:'Times New Roman';-inkscape-font-specification:TimesNewRomanPSMT;writing-mode:lr-tb;fill:#000000;fill-opacity:1;fill-rule:nonzero;stroke:none"
   transform="matrix(1,0,0,-1,190.8,547.7603)"><tspan
     id="tspan102"
     y="0"
     x="0 5.587152 8.3486643 13.374696 17.839607 22.819548 25.339579 28.101089 32.542957 37.568989 40.270378">Fixed leg: </tspan></text>
<text
   id="text108"
   style="font-variant:normal;font-weight:normal;font-stretch:normal;font-size:9.60000038px;font-family:'Times New Roman';-inkscape-font-specification:TimesNewRomanPSMT;writing-mode:lr-tb;fill:#000000;fill-opacity:1;fill-rule:nonzero;stroke:none"
   transform="matrix(1,0,0,-1,317.88,546.8003)"><tspan
     id="tspan106"
     y="0"
     x="0 -3.8399999 -12.54048 -20.639999 -30.30048 -25.500481 -32.700481 -37.500481 -53.759998 -50.563202">1-)%75.2(1</tspan></text>
<text
   id="text112"
   style="font-variant:normal;font-weight:normal;font-stretch:normal;font-size:5.59989977px;font-family:'Times New Roman';-inkscape-font-specification:TimesNewRomanPSMT;writing-mode:lr-tb;fill:#000000;fill-opacity:1;fill-rule:nonzero;stroke:none"
   transform="matrix(1,0,0,-1,308.76,551.0603)"><tspan
     id="tspan110"
     y="0"
     x="0">5</tspan></text>
<text
   id="text116"
   style="font-variant:normal;font-weight:normal;font-stretch:normal;font-size:9.60000038px;font-family:Symbol;-inkscape-font-specification:SymbolMT;writing-mode:lr-tb;fill:#000000;fill-opacity:1;fill-rule:nonzero;stroke:none"
   transform="matrix(1,0,0,-1,273.06,546.8003)"><tspan
     id="tspan114"
     y="0"
     x="0">+</tspan></text>
<path
   id="path118"
   style="fill:#ececec;fill-opacity:1;fill-rule:nonzero;stroke:none"
   d="M 189.3,536.72 H 550.14 V 507.08 H 189.3" /><text
   id="text122"
   style="font-variant:normal;font-weight:normal;font-stretch:normal;font-size:10.02000046px;font-family:'Times New Roman';-inkscape-font-specification:TimesNewRomanPSMT;writing-mode:lr-tb;fill:#000000;fill-opacity:1;fill-rule:nonzero;stroke:none"
   transform="matrix(1,0,0,-1,190.8,523.1603)"><tspan
     id="tspan120"
     y="0"
     x="0 3.360708 8.3406477 11.701356 14.462868 18.935797 21.697308 24.45882 29.492868 34.526917 37.046947 39.808456 44.190205 49.224251 51.925644">Inflation leg: </tspan></text>
<path
   id="path124"
   style="fill:none;stroke:#000000;stroke-width:0.39700001;stroke-linecap:round;stroke-linejoin:round;stroke-miterlimit:10;stroke-dasharray:none;stroke-opacity:1"
   d="m 264.42,522.32 h 65.82" /><path
   id="path126"
   style="fill:none;stroke:#000000;stroke-width:0.199;stroke-linecap:round;stroke-linejoin:round;stroke-miterlimit:10;stroke-dasharray:none;stroke-opacity:1"
   d="m 354.66,528.98 h 6.9 m 62.82,0 h 6.3 M 353.94,514.7 h 6.84 m 63.6,0 h 6.3" /><path
   id="path128"
   style="fill:none;stroke:#000000;stroke-width:0.39700001;stroke-linecap:round;stroke-linejoin:round;stroke-miterlimit:10;stroke-dasharray:none;stroke-opacity:1"
   d="M 353.1,522.32 H 487.44" /><text
   id="text142"
   style="font-variant:normal;font-weight:normal;font-stretch:normal;font-size:9.57400036px;font-family:'Times New Roman';-inkscape-font-specification:TimesNewRomanPSMT;writing-mode:lr-tb;fill:#000000;fill-opacity:1;fill-rule:nonzero;stroke:none"
   transform="matrix(1,0,0,-1,495.66,519.9203)"><tspan
     id="tspan130"
     y="0"
     x="0">1</tspan><tspan
     id="tspan132"
     y="7.6199465"
     x="-11.880377 -21.360552 -16.573551 -25.320358 -47.219925 -83.760056 -93.179909 -88.392914 -97.139717 -117.05938">)05/()05/(</tspan><tspan
     id="tspan134"
     y="-6.6606317"
     x="-12.658743 -22.258593 -17.471592 -25.318443 -47.21801 -83.758141 -93.357986 -88.570992 -96.417839 -116.3375">)10/()10/(</tspan><tspan
     id="tspan136"
     y="-0.00095740001"
     x="-157.13806">1</tspan><tspan
     id="tspan138"
     y="7.618989"
     x="-169.0778 -178.55797 -173.77097 -205.01764 -196.50635 -192.25549 -223.55769 -218.77069 -225.95789">)05May12(</tspan><tspan
     id="tspan140"
     y="-6.1216154"
     x="-169.49809 -179.09795 -174.31094 -204.65765 -196.14636 -191.89551 -223.13739 -218.35039 -225.5376">)10May12(</tspan></text>
<text
   id="text160"
   style="font-variant:normal;font-weight:normal;font-stretch:normal;font-size:5.58470011px;font-family:'Times New Roman';-inkscape-font-specification:TimesNewRomanPSMT;writing-mode:lr-tb;fill:#000000;fill-opacity:1;fill-rule:nonzero;stroke:none"
   transform="matrix(1,0,0,-1,424.98,509.3003)"><tspan
     id="tspan144"
     y="0"
     x="0 2.7923501">31</tspan><tspan
     id="tspan146"
     y="-6.5402422"
     x="-0.24014211 2.5522079">11</tspan><tspan
     id="tspan148"
     y="0"
     x="-70.200241 -67.40789">31</tspan><tspan
     id="tspan150"
     y="-6.6603131"
     x="-70.320305 -67.527962">20</tspan><tspan
     id="tspan152"
     y="-14.220322"
     x="0 2.7923501">31</tspan><tspan
     id="tspan154"
     y="-20.82032"
     x="-0.24014211 2.5522079">11</tspan><tspan
     id="tspan156"
     y="-14.220322"
     x="-69.420616 -66.628265">31</tspan><tspan
     id="tspan158"
     y="-20.880075"
     x="-69.540688 -66.748337">20</tspan></text>
<text
   id="text174"
   style="font-variant:normal;font-weight:normal;font-stretch:normal;font-size:9.57400036px;font-family:Symbol;-inkscape-font-specification:SymbolMT;writing-mode:lr-tb;fill:#000000;fill-opacity:1;fill-rule:nonzero;stroke:none"
   transform="matrix(1,0,0,-1,489.6,519.9203)"><tspan
     id="tspan162"
     y="0"
     x="0">−</tspan><tspan
     id="tspan164"
     y="7.6199465"
     x="-72.659958">+</tspan><tspan
     id="tspan166"
     y="-6.6606317"
     x="-72.659958">+</tspan><tspan
     id="tspan168"
     y="-0.00095740001"
     x="-144.54059 -157.20029">=−</tspan><tspan
     id="tspan170"
     y="7.618989"
     x="-179.52016 -206.10045">−−</tspan><tspan
     id="tspan172"
     y="-6.1216154"
     x="-179.09985 -205.73952">−−</tspan></text>
<text
   id="text184"
   style="font-style:italic;font-variant:normal;font-weight:normal;font-stretch:normal;font-size:9.57400036px;font-family:'Times New Roman';-inkscape-font-specification:TimesNewRomanPS-ItalicMT;writing-mode:lr-tb;fill:#000000;fill-opacity:1;fill-rule:nonzero;stroke:none"
   transform="matrix(1,0,0,-1,452.10151,512.30131)"><tspan
     id="tspan176"
     y="0"
     x="0 7.975142 12.762142 -20.339964 -13.954105 -8.1043911 -69.71978 -63.870068 -59.619213 -90.17942 -83.793564 -77.943848">MarCPIFebCPI</tspan><tspan
     id="tspan178"
     y="-14.280578"
     x="0.00095740001 7.9760995 12.7631 -20.339006 -13.953148 -8.1034336 -68.998863 -63.149147 -58.898289 -89.458496 -83.072639 -77.222923">MarCPIFebCPI</tspan><tspan
     id="tspan180"
     y="0"
     x="-186.71886">I</tspan><tspan
     id="tspan182"
     y="-13.740605"
     x="-186.35887">I</tspan></text>
<text
   id="text192"
   style="font-variant:normal;font-weight:normal;font-stretch:normal;font-size:10.02000046px;font-family:'Times New Roman';-inkscape-font-specification:TimesNewRomanPSMT;writing-mode:lr-tb;fill:#000000;fill-opacity:1;fill-rule:nonzero;stroke:none"
   transform="matrix(1,0,0,-1,190.79974,490.87987)"><tspan
     id="tspan186"
     y="0"
     x="0 5.5861502 8.347662 13.372692 18.352633 21.704323 26.168232 30.007896 35.032925 37.492836 42.517864 46.357529 51.382561 54.144073 59.124012 63.56588 67.478691 71.378471 75.842384 80.822319 84.722107 89.702049 94.742104 99.206017 102.5056 107.53063 110.29214 114.67389 121.93238 125.77204 130.79707 134.14876 138.04855 140.74994 145.78999 150.25391 154.15369 161.83502 166.27689 169.62859 174.60852 179.07243 181.83394 185.73372 190.19763 195.22267 200.20261 205.24266 209.6244 214.66447 217.42598 220.1875 225.16743 230.19246 234.03113 237.93091 242.95595 246.86876 251.2505 256.29056 260.13022 263.4819 268.46185 271.81354 275.71332 278.47482 281.83453 286.21628 291.25635 293.95773 298.9978 303.97775 307.87753 312.34143 316.80536 320.10492 325.12997 328.48166 332.8634 337.84332 342.86838 347.8483 352.82825 357.86832">Figure 5.3 gives an overview of the market conventions used for trading zero-coupon </tspan><tspan
     id="tspan188"
     y="12.47991"
     x="0 3.8967781 11.130216 15.578094 20.587091 24.48387 30.184248 32.968807 37.977802 43.678181 46.462742 51.471737 55.853485 61.553864 66.562859 69.34742 72.683075 76.018738 80.400482 83.736137 88.184013 93.193016 95.97757 101.67795 104.46251 109.4715 114.48051 117.26506 121.71294 126.16082 130.0576 132.5616 138.26198 144.38319 149.39218 153.84007 159.54045 163.98833 168.99731 174.00632 179.01532 183.4632 188.46017 191.24873 194.03729 199.05031 204.06331 209.76369 214.21558 219.22858 224.24159 229.94197 232.64336 237.08522 242.09824 247.79861 252.25049 255.59016 260.04205 265.74243 270.19431 272.98288 276.88367 281.89667 287.59705 290.29843 295.31143 300.32446 303.11301 307.56491 312.01678 314.80536 319.25723 324.27023 329.91049 334.92352 339.93652 345.6369 348.42545 353.43848 357.94046">swaps in the different indices. The convention and lag are also indicated on the </tspan><tspan
     id="tspan190"
     y="24.95982"
     x="0 6.1382518 10.603164 15.629196 23.310528 27.77544 32.801472 38.939724 41.701237 46.727268 51.192181 53.652088 58.63203 63.073895 68.09993 72.564842 75.02475 78.377441 83.357384 86.710075 89.230103 91.991615 96.971558 100.32425 103.08576 107.55067 110.31219 113.07369 118.05363 123.07967 125.53958 130.56561 133.86519 138.84514 143.87117 148.8972 153.36211 156.12363 160.0224 162.54344">LehmanLive page for inflation products. </tspan></text>
<text
   id="text196"
   style="font-variant:normal;font-weight:bold;font-stretch:normal;font-size:9px;font-family:Arial;-inkscape-font-specification:Arial-BoldMT;writing-mode:lr-tb;fill:#000000;fill-opacity:1;fill-rule:nonzero;stroke:none"
   transform="matrix(1,0,0,-1,190.8,437.3003)"><tspan
     id="tspan194"
     y="0"
     x="0 5.5215001 8.0432997 13.5648 19.0863 22.5648 27.553499 30.0753 35.063999 37.550701 42.539398 45.0261 54.027901 61.509602 66.498299 69.984001 75.022202 80.010902 82.992599 85.514397 90.503098 96.024597 101.6064 106.4646 111.5631 117.0846 120.0663 122.553 128.0367 133.5582 138.54691 141.0687 144.0504 149.5719 153.0576 155.57941 160.0641 165.0528 168.5385 174.06 177.0417 182.0304 187.5519 193.07339 198.53461 204.05611 209.57761 212.0994 216.9576 224.15939 229.01759 234.53909">Figure 5.3. Market conventions for zero-coupon swaps</tspan></text>
<path
   id="path198"
   style="fill:#ffffff;fill-opacity:1;fill-rule:nonzero;stroke:none"
   d="m 190.08,415.58 h 210.18 v 13.2 H 190.08 Z" /><text
   id="text202"
   style="font-variant:normal;font-weight:bold;font-stretch:normal;font-size:7.98000002px;font-family:Arial;-inkscape-font-specification:Arial-BoldMT;writing-mode:lr-tb;fill:#000000;fill-opacity:1;fill-rule:nonzero;stroke:none"
   transform="matrix(1,0,0,-1,190.8,419.4203)"><tspan
     id="tspan200"
     y="0"
     x="0 6.649734 11.089008 14.195622 18.634895 23.074169 25.733904">Market </tspan></text>
<path
   id="path204"
   style="fill:#ffffff;fill-opacity:1;fill-rule:nonzero;stroke:none"
   d="m 399.54,415.58 h 165.9 v 13.2 h -165.9 z" /><text
   id="text208"
   style="font-variant:normal;font-weight:bold;font-stretch:normal;font-size:7.98000002px;font-family:Arial;-inkscape-font-specification:Arial-BoldMT;writing-mode:lr-tb;fill:#000000;fill-opacity:1;fill-rule:nonzero;stroke:none"
   transform="matrix(1,0,0,-1,468.66,419.4203)"><tspan
     id="tspan206"
     y="0"
     x="0 6.6385622 11.066664 13.715226 18.636492 23.503494 28.370497">Method </tspan></text>
<path
   id="path210"
   style="fill:#000000;fill-opacity:1;fill-rule:nonzero;stroke:none"
   d="m 190.8,428.78 h 374.28 v 0.47998 H 190.8 Z" /><g
   id="g212"><g
     clip-path="url(#clipPath218)"
     id="g214"><path
       id="path220"
       style="fill:#ffffff;fill-opacity:1;fill-rule:nonzero;stroke:none"
       d="m 190.08,401.84 h 210.18 v 13.2 H 190.08 Z" /></g></g><path
   id="path222"
   style="fill:#ffffff;fill-opacity:1;fill-rule:nonzero;stroke:none"
   d="m 190.8,401.9 h 209.46 v 13.2 H 190.8 Z" /><text
   id="text226"
   style="font-variant:normal;font-weight:normal;font-stretch:normal;font-size:7.98000002px;font-family:Arial;-inkscape-font-specification:ArialMT;writing-mode:lr-tb;fill:#000000;fill-opacity:1;fill-rule:nonzero;stroke:none"
   transform="matrix(1,0,0,-1,190.8,405.7403)"><tspan
     id="tspan224"
     y="0"
     x="0 5.3218622 9.7579441 12.414486 16.850569 21.28665 25.722733 30.158813 34.594894 36.876377 39.532921 45.293682 47.511326 53.272087 58.672153 62.631828 67.553093 70.192879">European (HICPxT) </tspan></text>
<g
   id="g228"><g
     clip-path="url(#clipPath234)"
     id="g230"><path
       id="path236"
       style="fill:#ffffff;fill-opacity:1;fill-rule:nonzero;stroke:none"
       d="m 399.54,401.84 h 165.9 v 13.2 h -165.9 z" /></g></g><path
   id="path238"
   style="fill:#ffffff;fill-opacity:1;fill-rule:nonzero;stroke:none"
   d="m 400.26,401.9 h 165.18 v 13.2 H 400.26 Z" /><text
   id="text242"
   style="font-variant:normal;font-weight:normal;font-stretch:normal;font-size:7.98000002px;font-family:Arial;-inkscape-font-specification:ArialMT;writing-mode:lr-tb;fill:#000000;fill-opacity:1;fill-rule:nonzero;stroke:none"
   transform="matrix(1,0,0,-1,433.08,405.7403)"><tspan
     id="tspan240"
     y="0"
     x="0 6.6561179 11.101776 15.547434 17.774652 22.22031 24.078852 27.978678 30.20031 31.980648 36.426308 40.871964 45.317623 49.316399 51.538033 53.318371 57.764027 61.762806 66.208466 67.9888 70.210434 72.876549 77.322212 83.978325 86.199959 87.980301 92.425957 96.871613 99.537735">Monthly index level (3M lag) </tspan></text>
<path
   id="path244"
   style="fill:#000000;fill-opacity:1;fill-rule:nonzero;stroke:none"
   d="m 190.8,415.1 h 374.28 v 0.48001 H 190.8 Z" /><path
   id="path246"
   style="fill:#ffffff;fill-opacity:1;fill-rule:nonzero;stroke:none"
   d="m 190.08,388.64 h 210.18 v 13.2 H 190.08 Z" /><text
   id="text250"
   style="font-variant:normal;font-weight:normal;font-stretch:normal;font-size:7.98000002px;font-family:Arial;-inkscape-font-specification:ArialMT;writing-mode:lr-tb;fill:#000000;fill-opacity:1;fill-rule:nonzero;stroke:none"
   transform="matrix(1,0,0,-1,190.8,392.4803)"><tspan
     id="tspan248"
     y="0"
     x="0 4.8765779 7.5347161 11.972394 16.410072 20.400869 24.838549 27.060181 29.759813 34.621231 40.383587 42.605221 48.367577 53.691036 55.972519 58.672153">French (FR CPI) </tspan></text>
<path
   id="path252"
   style="fill:#ffffff;fill-opacity:1;fill-rule:nonzero;stroke:none"
   d="m 399.54,388.64 h 165.9 v 13.2 h -165.9 z" /><text
   id="text256"
   style="font-variant:normal;font-weight:normal;font-stretch:normal;font-size:7.98000002px;font-family:Arial;-inkscape-font-specification:ArialMT;writing-mode:lr-tb;fill:#000000;fill-opacity:1;fill-rule:nonzero;stroke:none"
   transform="matrix(1,0,0,-1,449.04,392.4803)"><tspan
     id="tspan254"
     y="0"
     x="0 2.2264199 6.6712799 8.8977003 13.34256 16.007879 20.45274 24.8976 26.677139 31.122 33.348419 37.793282 42.23814 44.45977 48.457752 52.902611 54.682152 59.181274 63.626137 67.624115">Interpolated values </tspan></text>
<path
   id="path258"
   style="fill:#ffffff;fill-opacity:1;fill-rule:nonzero;stroke:none"
   d="m 190.08,375.44 h 210.18 v 13.2 H 190.08 Z" /><text
   id="text262"
   style="font-variant:normal;font-weight:normal;font-stretch:normal;font-size:7.98000002px;font-family:Arial;-inkscape-font-specification:ArialMT;writing-mode:lr-tb;fill:#000000;fill-opacity:1;fill-rule:nonzero;stroke:none"
   transform="matrix(1,0,0,-1,190.8,379.2803)"><tspan
     id="tspan260"
     y="0"
     x="0 5.7663479 10.208016 11.984364 14.207592 18.64926 23.090927 25.312559 30.640009 32.416355 36.858025 41.29969 45.74136 50.183029 56.835155 59.116638 61.778767 67.545113 72.872559 75.094193 80.860542 86.187988 88.411217 91.073349">United Kingdom (UK RPI) </tspan></text>
<path
   id="path264"
   style="fill:#ffffff;fill-opacity:1;fill-rule:nonzero;stroke:none"
   d="m 399.54,375.44 h 165.9 v 13.2 h -165.9 z" /><text
   id="text268"
   style="font-variant:normal;font-weight:normal;font-stretch:normal;font-size:7.98000002px;font-family:Arial;-inkscape-font-specification:ArialMT;writing-mode:lr-tb;fill:#000000;fill-opacity:1;fill-rule:nonzero;stroke:none"
   transform="matrix(1,0,0,-1,433.08,379.2803)"><tspan
     id="tspan266"
     y="0"
     x="0 6.6561179 11.101776 15.547434 17.774652 22.22031 24.078852 27.978678 30.20031 31.980648 36.426308 40.871964 45.317623 49.316399 51.538033 53.318371 57.764027 61.762806 66.208466 67.9888 70.210434 72.876549 77.322212 83.978325 86.199959 87.980301 92.425957 96.871613 99.537735">Monthly index level (2M lag) </tspan></text>
<path
   id="path270"
   style="fill:#ffffff;fill-opacity:1;fill-rule:nonzero;stroke:none"
   d="m 190.08,362.24 h 210.18 v 13.2 H 190.08 Z" /><text
   id="text274"
   style="font-variant:normal;font-weight:normal;font-stretch:normal;font-size:7.98000002px;font-family:Arial;-inkscape-font-specification:ArialMT;writing-mode:lr-tb;fill:#000000;fill-opacity:1;fill-rule:nonzero;stroke:none"
   transform="matrix(1,0,0,-1,190.8,366.0803)"><tspan
     id="tspan272"
     y="0"
     x="0 5.7647519 10.204824 11.979576 14.201208 18.641279 23.081352 25.302984 30.628836 32.850468 37.290539 39.512173 43.952244 47.945435 50.167068 52.827599 58.646618 63.972469 66.194099 68.85463 74.619385 79.945236 85.271088 87.931618">United States (CPI-NSA) </tspan></text>
<path
   id="path276"
   style="fill:#ffffff;fill-opacity:1;fill-rule:nonzero;stroke:none"
   d="m 399.54,362.24 h 165.9 v 13.2 h -165.9 z" /><text
   id="text280"
   style="font-variant:normal;font-weight:normal;font-stretch:normal;font-size:7.98000002px;font-family:Arial;-inkscape-font-specification:ArialMT;writing-mode:lr-tb;fill:#000000;fill-opacity:1;fill-rule:nonzero;stroke:none"
   transform="matrix(1,0,0,-1,449.04,366.0803)"><tspan
     id="tspan278"
     y="0"
     x="0 2.2264199 6.6712799 8.8977003 13.34256 16.007879 20.45274 24.8976 26.677139 31.122 33.348419 37.793282 42.23814 44.45977 48.457752 52.902611 54.682152 59.181274 63.626137 67.624115">Interpolated values </tspan></text>
<path
   id="path282"
   style="fill:#000000;fill-opacity:1;fill-rule:nonzero;stroke:none"
   d="m 190.08,361.76 h 210.18 v 0.48001 H 190.08 Z" /><path
   id="path284"
   style="fill:#000000;fill-opacity:1;fill-rule:nonzero;stroke:none"
   d="m 399.54,361.76 h 0.48001 v 0.48001 H 399.54 Z" /><path
   id="path286"
   style="fill:#000000;fill-opacity:1;fill-rule:nonzero;stroke:none"
   d="m 400.02,362.24 h 165.42 v -0.48 H 400.02" /><text
   id="text290"
   style="font-style:italic;font-variant:normal;font-weight:normal;font-stretch:normal;font-size:7.01999998px;font-family:Arial;-inkscape-font-specification:Arial-ItalicMT;writing-mode:lr-tb;fill:#000000;fill-opacity:1;fill-rule:nonzero;stroke:none"
   transform="matrix(1,0,0,-1,190.8,349.2203)"><tspan
     id="tspan288"
     y="0"
     x="0 4.683744 8.5882683 12.492792 14.831856 18.34326 22.182499 24.135462 26.116507 30.02103 33.925552 37.830078 43.679142 47.583668 51.422905 53.40395 58.087692 60.367786 64.272308 66.225273 70.129799 74.034325 76.314423 79.825821 81.778786">Source: Lehman Brothers. </tspan></text>
<text
   id="text300"
   style="font-variant:normal;font-weight:normal;font-stretch:normal;font-size:10.02000046px;font-family:'Times New Roman';-inkscape-font-specification:TimesNewRomanPSMT;writing-mode:lr-tb;fill:#000000;fill-opacity:1;fill-rule:nonzero;stroke:none"
   transform="matrix(1,0,0,-1,190.8,331.5204)"><tspan
     id="tspan292"
     y="0"
     x="0 6.1332421 11.154264 15.614166 19.993908 22.755421 27.197287 31.106089 35.014889 39.39463 42.156143 44.917656 49.897594 54.918617 57.68013 62.701153 67.080894 74.762222 79.204094 82.551773 87.5728 92.0327 94.794212 98.703011 101.21903 105.59878 109.50758 114.5286 118.91035 123.95041 128.33015 132.79005 136.69885 141.0786 143.8401 148.88017 153.34007 157.7198 164.3801 168.82198 171.52336 176.56342 179.32494 183.7668 188.78783 193.16756 200.41302 204.87292 209.33282 212.09435 214.85585 219.8358 224.21553 226.97705 231.95699 236.93694 241.3788 246.39981 248.91583 253.29558 257.67734 261.03702 265.49695 269.87668 272.63818 277.61813 282.63916 285.40067 289.86057 294.32047 297.08197 299.84348 304.82343 309.20319 314.22418 319.24521 324.26624 327.02774 331.40948 336.44955 340.82928 345.28922 349.198 353.57776 357.89938">The less liquid markets, such as the Belgian Health index, are typically quoted as a </tspan><tspan
     id="tspan294"
     y="12.47991"
     x="0 3.9138119 8.9398441 12.292536 16.757448 21.139194 26.179255 29.299482 32.060993 37.101055 40.221283 42.922672 47.962734 52.427647 55.547874 62.798347 66.151039 72.811333 78.329346 83.355377 89.41748 91.938507 95.058739 100.64589 105.62583 108.97852 112.09875 116.4805 121.52055 125.98547 133.66679 138.69283 141.45435 145.91925 148.44029 151.56052 154.32202 157.68173 160.80196 163.56348 168.60353 173.06845 176.18867 181.21471 186.19464 189.31488 194.34091 197.6936 202.15851 206.54025 211.56628 215.94803 220.97406 225.43898 230.46501 233.52512 236.82471 241.26657 244.02808 248.46996 251.59018 254.94287 259.9689 263.32159 266.38171 273.63217 276.98486 283.58505 289.16318 294.1431 300.26434 303.38455 307.84946 312.87549 317.90152 322.36646 325.12796 329.02673 332.08685 337.11288 339.57278 344.55273 349.53268 357.87231">spread to the HICPxT. For example, if the 5y breakeven rate for HICPxT equals 2.11% </tspan><tspan
     id="tspan296"
     y="25.019939"
     x="0 4.4609041 9.4829283 14.504952 17.145222 19.906734 24.946795 29.407698 32.04797 38.708263 43.150127 45.91164 50.951698 53.713211 58.094959 63.116982 65.757256 73.003716 77.464622 81.925522 84.687035 87.448547 92.488609 95.128876 97.890388 102.87033 107.89236 112.35326 117.3332 119.97346 122.73498 126.63376 129.27403 134.29605 139.31808 144.3401 147.10162 151.56252 156.58455 159.22481 163.68571 166.44724 169.08749 174.06744 179.1075 184.08743 189.1275 191.64453 194.28479 197.04631 202.08636 204.84789 208.74666 211.38693 219.06827 223.52916 227.99007 233.0121 236.92191 239.56216 242.32368 247.36374 251.82465 254.58615 257.22644 259.98795 265.02798 269.48889 272.12918 277.15118 282.13113 284.77139 289.79343 293.14212 297.60303 302.06393 307.08594 311.54684 316.56888 320.95062 325.99069 328.63095 331.97964 336.44055 339.20206 343.64392 346.28418 349.58377 354.56372 357.91238">and the Belgian Health index is quoted at 50bp, this means that the 5y breakeven rate for </tspan><tspan
     id="tspan298"
     y="37.499851"
     x="0 2.7685261 7.8085861 12.240432 14.760462 21.426767 25.858614 28.62714 33.667198 36.435726 40.867573 45.860538 48.380569 55.597973 60.029819 64.461662 67.230194 69.998718 75.03878 77.558807 80.327332 85.367393 90.407455 94.7892 99.829262 102.34929 106.78114 111.7741 116.81416 121.19591 123.96443 127.84518 130.3652 135.40527 137.86517 142.85814 147.89821 156.22783 158.71581">the Belgian Health index equals 2.61%. </tspan></text>
<text
   id="text304"
   style="font-style:italic;font-variant:normal;font-weight:normal;font-stretch:normal;font-size:9px;font-family:Arial;-inkscape-font-specification:Arial-ItalicMT;writing-mode:lr-tb;fill:#003c35;fill-opacity:1;fill-rule:nonzero;stroke:none"
   transform="matrix(1,0,0,-1,190.8,274.7003)"><tspan
     id="tspan302"
     y="0"
     x="0 5.9895 10.98 12.9645 18.002701 22.9932 25.481701 27.4662 32.456699 37.447201 40.0284 45.018902 47.507401 50.148899 54.468899 59.507099 62.490601 67.481102 70.4646 74.951103 79.941597 84.979797 89.970299 94.9608 99.951302 102.4731 106.9596 113.4981 118.5363 123.5151 128.0016">Valuation of zero-coupon swaps </tspan></text>
<text
   id="text308"
   style="font-variant:normal;font-weight:normal;font-stretch:normal;font-size:10.02000046px;font-family:'Times New Roman';-inkscape-font-specification:TimesNewRomanPSMT;writing-mode:lr-tb;fill:#000000;fill-opacity:1;fill-rule:nonzero;stroke:none"
   transform="matrix(1,0,0,-1,190.8,256.5203)"><tspan
     id="tspan306"
     y="0"
     x="0 7.2524762 12.280512 15.10014 17.861652 22.841593 26.196287 28.9578 33.424717 36.18623 38.947739 43.975777 49.003811 51.823441 55.662102 62.920589 67.387505 72.415543 75.175049 80.203087 84.670006 88.585815 91.405449 95.87236 100.9004 103.72002 106.48154 111.46148 114.76106 117.52258 121.98949 124.75101 127.51251 132.54056 137.56859 140.38821 145.41624 149.88316 153.23787 155.93925 160.96729">An inflation swap has an inflation period</tspan></text>
<text
   id="text312"
   style="font-variant:normal;font-weight:normal;font-stretch:normal;font-size:6.48000002px;font-family:'Times New Roman';-inkscape-font-specification:TimesNewRomanPSMT;writing-mode:lr-tb;fill:#000000;fill-opacity:1;fill-rule:nonzero;stroke:none"
   transform="matrix(1,0,0,-1,356.7,261.0203)"><tspan
     id="tspan310"
     y="0"
     x="0 3.24">22</tspan></text>
<text
   id="text316"
   style="font-variant:normal;font-weight:normal;font-stretch:normal;font-size:10.02000046px;font-family:'Times New Roman';-inkscape-font-specification:TimesNewRomanPSMT;writing-mode:lr-tb;fill:#000000;fill-opacity:1;fill-rule:nonzero;stroke:none"
   transform="matrix(1,0,0,-1,365.99963,256.5203)"><tspan
     id="tspan314"
     y="0"
     x="0 3.8977799 6.6833401 11.13222 14.46888 17.25444 20.040001 25.049999 30.059999 32.879627 37.328506 40.114067">starting at </tspan></text>
<text
   id="text320"
   style="font-style:italic;font-variant:normal;font-weight:normal;font-stretch:normal;font-size:10.02000046px;font-family:'Times New Roman';-inkscape-font-specification:TimesNewRomanPS-ItalicMT;writing-mode:lr-tb;fill:#000000;fill-opacity:1;fill-rule:nonzero;stroke:none"
   transform="matrix(1,0,0,-1,408.90026,256.5203)"><tspan
     id="tspan318"
     y="0"
     x="0">T</tspan></text>
<text
   id="text324"
   style="font-style:italic;font-variant:normal;font-weight:normal;font-stretch:normal;font-size:6.48000002px;font-family:'Times New Roman';-inkscape-font-specification:TimesNewRomanPS-ItalicMT;writing-mode:lr-tb;fill:#000000;fill-opacity:1;fill-rule:nonzero;stroke:none"
   transform="matrix(1,0,0,-1,414.48,255.0203)"><tspan
     id="tspan322"
     y="0"
     x="0">s</tspan></text>
<text
   id="text328"
   style="font-variant:normal;font-weight:normal;font-stretch:normal;font-size:10.02000046px;font-family:'Times New Roman';-inkscape-font-specification:TimesNewRomanPSMT;writing-mode:lr-tb;fill:#000000;fill-opacity:1;fill-rule:nonzero;stroke:none"
   transform="matrix(1,0,0,-1,419.81963,256.5203)"><tspan
     id="tspan326"
     y="0"
     x="0 4.446876 9.4548721 14.462868 17.282495 21.729372 26.737368 31.745363 34.528919 39.536915 44.54491 47.36454 51.811417">and ending at</tspan></text>
<text
   id="text332"
   style="font-style:italic;font-variant:normal;font-weight:normal;font-stretch:normal;font-size:10.02000046px;font-family:'Times New Roman';-inkscape-font-specification:TimesNewRomanPS-ItalicMT;writing-mode:lr-tb;fill:#000000;fill-opacity:1;fill-rule:nonzero;stroke:none"
   transform="matrix(1,0,0,-1,477.17912,256.5203)"><tspan
     id="tspan330"
     y="0"
     x="0">T</tspan></text>
<text
   id="text336"
   style="font-style:italic;font-variant:normal;font-weight:normal;font-stretch:normal;font-size:6.48000002px;font-family:'Times New Roman';-inkscape-font-specification:TimesNewRomanPS-ItalicMT;writing-mode:lr-tb;fill:#000000;fill-opacity:1;fill-rule:nonzero;stroke:none"
   transform="matrix(1,0,0,-1,482.76,255.0203)"><tspan
     id="tspan334"
     y="0"
     x="0">e</tspan></text>
<text
   id="text342"
   style="font-variant:normal;font-weight:normal;font-stretch:normal;font-size:10.02000046px;font-family:'Times New Roman';-inkscape-font-specification:TimesNewRomanPSMT;writing-mode:lr-tb;fill:#000000;fill-opacity:1;fill-rule:nonzero;stroke:none"
   transform="matrix(1,0,0,-1,488.45963,256.5203)"><tspan
     id="tspan338"
     y="0"
     x="0 5.0300398 10.06008 14.441826 17.798527 20.618155 27.816523 32.856583 35.618095 40.059959 45.09 47.90963 50.671139 55.711201 60.180119">over which the </tspan><tspan
     id="tspan340"
     y="12.47991"
     x="-297.65912 -294.89761 -289.85754 -286.50787 -283.74637 -279.28445 -276.52295 -273.76144 -268.7384 -263.71539 -260.59515 -257.83365 -253.93486 -250.81462 -246.43288 -241.45294 -233.77161 -228.74858 -223.72556 -220.96405 -216.50214 -211.47911 -208.35889 -203.89697 -198.91704 -193.89401 -190.77379 -186.31187 -183.25177 -179.34097 -176.57945 -171.55643 -166.5334 -163.7719 -159.30998 -156.24988 -151.22685 -146.76494 -141.785 -134.10367 -129.64177 -124.54159 -121.78008 -118.65984 -113.63682 -109.17491 -106.4134 -101.97153 -99.453506 -96.333282 -89.134911 -84.094856 -81.333344 -76.891479 -71.868446 -68.808342 -61.560875 -57.098969 -53.978741 -49.516834 -45.60603 -41.767368 -36.727306 -29.045977 -24.604111 -21.483883 -18.72237 -13.68231 -10.562082 -6.1001759 -1.07715 3.9458759 8.4077816 11.169294">inflation is computed and a single payment date, which we assume to equal </tspan></text>
<text
   id="text346"
   style="font-style:italic;font-variant:normal;font-weight:normal;font-stretch:normal;font-size:10.02000046px;font-family:'Times New Roman';-inkscape-font-specification:TimesNewRomanPS-ItalicMT;writing-mode:lr-tb;fill:#000000;fill-opacity:1;fill-rule:nonzero;stroke:none"
   transform="matrix(1,0,0,-1,502.62089,244.04039)"><tspan
     id="tspan344"
     y="0"
     x="0">T</tspan></text>
<text
   id="text350"
   style="font-style:italic;font-variant:normal;font-weight:normal;font-stretch:normal;font-size:6.48000002px;font-family:'Times New Roman';-inkscape-font-specification:TimesNewRomanPS-ItalicMT;writing-mode:lr-tb;fill:#000000;fill-opacity:1;fill-rule:nonzero;stroke:none"
   transform="matrix(1,0,0,-1,508.2,242.5403)"><tspan
     id="tspan348"
     y="0"
     x="0">e</tspan></text>
<text
   id="text358"
   style="font-variant:normal;font-weight:normal;font-stretch:normal;font-size:10.02000046px;font-family:'Times New Roman';-inkscape-font-specification:TimesNewRomanPSMT;writing-mode:lr-tb;fill:#000000;fill-opacity:1;fill-rule:nonzero;stroke:none"
   transform="matrix(1,0,0,-1,514.20023,244.0403)"><tspan
     id="tspan352"
     y="0"
     x="0 3.3005879 8.3406477 11.700354 14.760462 19.73439 24.708319 31.966806 34.435734">for now, </tspan><tspan
     id="tspan354"
     y="12.54003"
     x="-323.40051 -316.15002 -311.12399 -306.74225 -301.70221 -298.46274 -295.76135 -290.72128 -286.25638 -283.01691 -280.2554 -275.27545 -271.92276 -269.16125 -264.69635 -261.93481 -259.17331 -254.14728 -249.12125 -245.9409 -240.91487 -236.44995 -231.47002 -223.78868 -219.32378 -214.29774 -211.53622 -208.29677 -204.94408 -199.91805 -194.9381 -191.69864 -188.93712 -183.89706 -179.43214 -176.19269 -173.49129 -168.45123 -165.09854 -162.33702 -157.87212 -155.1106 -152.34909 -147.36916 -142.34312 -139.10365 -136.34213 -131.90027 -126.92033 -123.56063 -120.32116 -117.55965 -113.66087 -110.4214 -106.03966 -100.9996 -96.534683 -91.554741 -87.172997 -82.146965 -77.120934 -72.739189 -67.713158 -64.532806 -57.282337 -54.520824 -51.759312 -46.719254 -43.479786 -39.014874 -35.834526 -32.481834 -29.780441 -24.75441 -20.289497 -15.309558 -12.070092 -7.6051798 0.076151997 5.1021838 10.128216 15.154248 17.91576 21.155226 24.454811 29.434752 34.460785">when the inflation payment (on the inflation leg) is exchanged with a fixed amount (on </tspan><tspan
     id="tspan356"
     y="25.019939"
     x="-323.40051 -320.61795 -315.61096 -311.1651 -308.64505 -305.3114 -302.61002 -297.60303 -293.15714 -288.15015 -285.63013 -282.84756 -278.4017 -273.39468 -270.06104 -267.55905 -265.09915 -258.97992 -253.97293 -249.52705 -247.00703 -242.56116 -238.11528 -234.27661 -229.26962 -225.93597 -223.15341 -218.14642 -210.91499 -207.02022 -204.5603 -200.11443 -196.74069 -192.27678 -189.81688 -184.79184 -181.44016 -176.97624 -173.06343 -168.68169 -163.64163 -160.88011 -156.43825 -151.45831 -148.93828 -146.17677 -141.1367 -138.61668 -133.03053 -130.32913 -125.30411 -120.32417 -116.97248 -112.50857 -110.04866 -105.02363 -102.56372 -97.538689 -95.078781">the fixed leg). The cashflows are presented in Figure 5.4. </tspan></text>
<path
   id="path360"
   style="fill:#000000;fill-opacity:1;fill-rule:nonzero;stroke:none"
   d="m 190.8,86.12 h 144 v 0.42001 h -144 z" /><text
   id="text364"
   style="font-style:italic;font-variant:normal;font-weight:normal;font-stretch:normal;font-size:4.5px;font-family:Arial;-inkscape-font-specification:Arial-ItalicMT;writing-mode:lr-tb;fill:#000000;fill-opacity:1;fill-rule:nonzero;stroke:none"
   transform="matrix(1,0,0,-1,190.8,78.9803)"><tspan
     id="tspan362"
     y="0"
     x="0 2.5191">22</tspan></text>
<text
   id="text372"
   style="font-style:italic;font-variant:normal;font-weight:normal;font-stretch:normal;font-size:7.01999998px;font-family:Arial;-inkscape-font-specification:Arial-ItalicMT;writing-mode:lr-tb;fill:#000000;fill-opacity:1;fill-rule:nonzero;stroke:none"
   transform="matrix(1,0,0,-1,199.80279,75.5003)"><tspan
     id="tspan366"
     y="0"
     x="0 4.2857099 8.1853199 12.08493 14.065974 17.965584 21.865194 23.813244 27.712854 31.219343 33.20039 35.534538 39.373775 41.321827 45.221436 47.555588 49.476959 51.425011 55.264248 57.245293 59.19334 63.092953 66.992561 68.973602 72.873215 76.712456 78.660507 82.560112 86.066605 88.047646 93.057121 96.963051 100.86897 104.70821 106.68925 108.64362 112.48286 116.38879 118.31017 120.65063 124.55656 126.51093 130.41685 132.75732 136.66325 140.50249 144.04268 147.88191 149.86296 153.76889 157.67482 163.52528 167.43121 171.33714 173.61723 177.13005 179.05142 182.95735 185.29782 189.20374 191.18478 195.09071 198.92995 202.44276 206.34869 208.62878 212.16898 216.07491 219.89729 221.84183 223.82288 228.10507 232.00117 234.28127 236.26231 239.76529 243.66139 249.50203 253.39813 255.37918 261.21982 265.11591 267.44656 270.94952 274.84564 276.79016 280.29315 282.21454 284.54517 290.3858 294.28192 297.78488 299.72943 301.71048 305.60657 309.50269 311.4472 315.34332 319.23941 320.79083 324.29382 326.21518 328.15973 332.05582 335.95193">The dates refer to the dates when the reference numbers are observed. For some markets (most notably the </tspan><tspan
     id="tspan368"
     y="8.0400057"
     x="-0.002808 4.676724 8.5770359 10.911888 14.8122 18.712511 22.612823 26.513136 30.352373 32.33342 37.399052 39.347801 44.413433 49.033295 52.540489 56.8269 58.748276 64.593124 68.493439 70.828293 74.33548 78.235794 80.184547 82.519402 84.468147 86.449196 88.004829 89.953575 91.934624 93.433395 96.973579 98.894951 102.40215 106.24138 109.74857 111.69733 115.53657 121.31754 125.22487 127.56673 131.08095 133.00232 134.9581 138.79733 140.77838 142.73415 145.07602 148.91525 152.82259 156.72992 158.71097 162.5502 166.44911 168.43016 169.99281 173.83205 175.78783 177.35048 181.2578 183.21358 184.77623 188.68356 192.5228 194.50385 200.35571 204.26305 208.17038 210.12614 213.96539 217.44521 219.40097 221.38202 225.22125 229.12016 231.07594 233.05698 236.89622 240.80354 244.71088 246.69193 250.20613 254.11346 258.02081 260.00183 263.84109 265.40024 270.47287 274.38022 277.89441 281.40863 283.38968 285.66977 289.5687 294.64133 296.98322 298.54587 300.50162 304.40897 306.33032 308.2861 312.19345 313.6922 317.23239 319.21344 320.71222 324.61111 326.5325 328.48825 332.3956 334.73746 340.49738 344.0116">European HICPxT market), it is customary to trade on inflation months, but one can always rewrite this in terms </tspan><tspan
     id="tspan370"
     y="16.080011"
     x="-0.002808 3.9010141 5.8532758 7.8343201 10.114416 14.013324 15.965586 19.869408 22.149504 26.053326 29.957148 33.46785 37.307087 39.288132 43.191956 47.031193 48.983456 52.822693 56.333393 58.254768 62.158588 66.062408 69.966232 71.947281 75.851097 79.754921 85.603287 89.507103 93.410927 95.691025 99.201729 101.18277 103.52113 107.03184 110.93565 114.83948 116.76085 121.44389 125.34772 128.85841 130.81068 132.36983 136.27365 140.17746 142.09885 146.00266 147.95493 151.79416 153.77521 155.72746 159.63129 161.96965 163.89102 165.84329 169.74712 173.58635 175.55687 177.83696 181.73587 183.29361 187.19601 189.14688 190.70462 194.60704 198.44557 200.42662 204.32904 208.16827 210.11913 215.18687 219.08928 222.9917 226.89412 228.87517 231.15526 235.05417 237.00504 240.90744 243.2444 247.14682 251.04924 254.55853 258.39777 260.37881 264.28125 268.18365 274.03061 277.93304 281.83545 284.11554 287.62485 289.6059 293.5083 297.34753 301.24997 303.23102 304.78876 308.69116 312.59357 316.43283 319.94211 321.92316 323.42194 327.32083 330.83014 334.73254 336.23132 339.77151 342.05161 344.03265">of reference dates and numbers (see Section 4.3 for the relation between reference numbers and index levels). </tspan></text>
<text
   id="text384"
   style="font-style:italic;font-variant:normal;font-weight:normal;font-stretch:normal;font-size:10.02000046px;font-family:'Times New Roman';-inkscape-font-specification:TimesNewRomanPS-ItalicMT;writing-mode:lr-tb;fill:#004538;fill-opacity:1;fill-rule:nonzero;stroke:none"
   transform="matrix(1,0,0,-1,74.46,491.0603)"><tspan
     id="tspan374"
     y="0"
     x="0 5.570118 10.579116 15.026994 17.486904 24.720343 29.72934 32.189251 39.422688 44.431686 48.328465 52.710209 57.158089 59.942646 62.462677 65.247231 69.144012 74.153008 79.16201 83.609886 87.50666">The US market trades </tspan><tspan
     id="tspan376"
     y="12.54003"
     x="12.779508 16.675283 21.12216 23.905716 28.352592 32.248367 36.695244 41.703239 46.150116 50.596992 53.055901 58.063896 63.071892 70.304329 75.312325 79.759201 83.654976 87.550751">reference numbers </tspan><tspan
     id="tspan378"
     y="159.4202"
     x="-6.0600958 -0.492984 3.9518881 7.8456602 11.739432 14.259462 17.041014 19.822565 24.828558 29.834551 32.6161 37.622093 40.082005 47.312435 52.318428 56.2122 60.65707 65.101944 67.883499 71.777267 74.297295 79.303291 83.19706 87.578812">Less liquid markets are </tspan><tspan
     id="tspan380"
     y="171.90012"
     x="-21.660234 -18.898722 -14.456856 -9.429822 -6.6683102 -2.2023959 2.8246379 5.5861502 8.347662 12.789528 15.309558 20.289497 25.269438 30.309498 33.071011 37.512875 42.539909 44.999821 50.026855 53.941669 56.461697 60.300362 65.340424 69.255234 73.636978 78.664017 83.643951 87.558769">typically quoted as spreads </tspan><tspan
     id="tspan382"
     y="184.44014"
     x="5.04006 7.809588 12.849648 15.369678 18.139206 23.179266 27.612114 30.132145 32.901672 35.6712 40.665169 45.705227 48.40662 53.446678 55.90659 63.124996 68.165054 72.046806 76.479652 80.912498 83.68203 87.563782">to the liquid markets </tspan></text>
</g></svg>
