<?xml version="1.0" encoding="UTF-8" standalone="no"?>
<svg
   xmlns:dc="http://purl.org/dc/elements/1.1/"
   xmlns:cc="http://creativecommons.org/ns#"
   xmlns:rdf="http://www.w3.org/1999/02/22-rdf-syntax-ns#"
   xmlns:svg="http://www.w3.org/2000/svg"
   xmlns="http://www.w3.org/2000/svg"
   viewBox="0 0 395.3468 154.47467"
   height="154.47467"
   width="395.3468"
   xml:space="preserve"
   id="svg2"
   version="1.1"><metadata
     id="metadata8"><rdf:RDF><cc:Work
         rdf:about=""><dc:format>image/svg+xml</dc:format><dc:type
           rdf:resource="http://purl.org/dc/dcmitype/StillImage" /></cc:Work></rdf:RDF></metadata><defs
     id="defs6"><clipPath
       id="clipPath14"
       clipPathUnits="userSpaceOnUse"><path
         id="path12"
         d="M 0,0 H 792 V 612 H 0 Z" /></clipPath></defs><g
     clip-path="url(#clipPath14)"
     transform="matrix(1.3333333,0,0,-1.3333333,-96.8732,699.05467)"
     id="g10"><text
       id="text22"
       style="font-variant:normal;font-weight:bold;font-size:8.88000011px;font-family:Arial;-inkscape-font-specification:'Arial Bold';writing-mode:lr-tb;fill:#000000;fill-opacity:1;fill-rule:nonzero;stroke:none"
       transform="matrix(1,0,0,-1,277.44,556.32)"><tspan
         id="tspan16"
         y="0"
         x="0 5.4418802 11.86944 17.808599 24.23616 30.17532 36.602879 43.030441 48.969601 51.36964 53.854481 60.28204 65.723923 71.165802 77.593361 83.03524 85.520081 92.444923 98.872482 101.84572 104.33056 110.75812 117.18568 123.12484 129.064 135.00316 141.43073 143.83076 149.76991 155.70908 162.13664 168.56419 174.99176 177.47659 182.91849 185.40332 191.34248">TREASURY INFLATION-INDEXED SECURITIES</tspan><tspan
         id="tspan18"
         y="11.04"
         x="37.68 44.111061 49.068039 52.044781 54.444721 60.875778 66.818443 69.306778 71.706718 76.663696 82.109077 87.554459 89.954399 92.442741 97.888123 103.3335 108.29048 113.24746 115.6474 122.07846 127.03544 130.01218 132.50052 137.94591 142.90288 145.30283 148.27956 153.72495 157.19896">Ref CPI and Index Ratios for </tspan><tspan
         id="tspan20"
         y="22.32"
         x="77.040001 82.077881 87.604156 93.13044 98.16832 100.56826 105.60614 110.64402 115.6819">June 1998</tspan></text>
<path
       id="path24"
       style="fill:#000000;fill-opacity:1;fill-rule:nonzero;stroke:none"
       d="m 76.32,519.84 h 630.24 v 1.68 H 76.32 Z" /><text
       id="text44"
       style="font-variant:normal;font-weight:bold;font-size:8.39999962px;font-family:Arial;-inkscape-font-specification:'Arial Bold';writing-mode:lr-tb;fill:#000000;fill-opacity:1;fill-rule:nonzero;stroke:none"
       transform="matrix(1,0,0,-1,88.08,503.28)"><tspan
         id="tspan26"
         y="0"
         x="0 5.5290999 10.1258 14.7225 19.7812 22.9751 25.236601 27.9601 32.556801 176.16 180.7829 183.53259 188.1555 190.44321 195.0661 202.48621 204.8862 209.50909 214.132 216.8817 222.437 227.05991 231.6828 234.90289 237.3029 243.32021 248.40511 251.1548 255.77769 286.79999 291.42661 294.17999 298.80661 301.09799 305.72461 313.14841 315.5484 320.17499 322.92841 328.4874 333.11401 337.7406 340.96439 343.36441 349.38541 354.474 357.22739 361.854 397.44 402.0629 404.81259 409.43549 411.72321 416.3461 423.7662 426.1662 430.78909 435.41199 438.16171 443.71701 448.3399 452.9628 456.18289 458.58289 464.60019 469.68509 472.43481 477.05771 503.28 507.86749 510.58179 515.16931 517.42157 522.00909 529.3938 531.79382 536.38129 540.96881 543.68311 549.203 553.79053 558.37799 561.56268 563.96271 569.94458 574.99408 580.04358 585.09308">Security:3-3/8% 10-Year Notes3-5/8% 5-Year Notes3-5/8% 10-Year Notes3-5/8% 30-Year Bonds</tspan><tspan
         id="tspan28"
         y="9.6000004"
         x="0 5.961 10.5276 15.0942 19.660801 22.8246 25.056 30.0846 32.778 35.009399 40.037998 45.066601 176.16 181.6461 186.1998 189.35069 191.5692 196.12289 200.67661 203.0766 209.0247 211.7052 216.2589 220.81261 225.3663 286.79999 292.3223 296.9122 300.0993 302.354 306.94391 311.53381 313.93381 318.52371 321.24039 325.83029 330.4202 335.0101 397.44 402.92609 407.4798 410.63071 412.84921 417.40289 421.9566 424.3566 430.30469 432.9852 437.53891 442.09259 446.6463 503.28 509.20239 514.19238 519.18237 524.17242 528.70038 531.1004 536.09039 538.74518 541.1452 547.06763 552.05762 555.1828 557.37561 559.56842 561.96838 566.4964 571.02441 575.55243">Description:Series A-2007Series J-2002Series A-2008Bonds of April 2028</tspan><tspan
         id="tspan30"
         y="19.440001"
         x="0 5.9678998 11.9358 17.4417 19.68 25.1859 27.585899 33.553799 38.589298 45.959999 50.995499 55.569 58.7397">CUSIP Number:</tspan><tspan
         id="tspan32"
         y="19.440001"
         x="176.16 180.7281 185.2962 189.8643 194.4324 199.0005 203.5686 208.1367 215.0316 286.79999 291.31171 295.82339 300.33511 304.8468 309.35849 313.87021 318.3819 324.28799 397.44 402.00201 406.564 411.12601 415.68799 420.25 424.81201 429.37399 434.39801 503.28 507.84711 512.41418 516.98132 521.5484 526.11548 530.68262 535.71167 541.67322">9128272M39128273A89128273T7912810FD5</tspan><tspan
         id="tspan34"
         y="29.280001"
         x="0 5.9993 10.6042 13.3359 17.9408 23.0077 25.4077 31.407 36.011902 38.743599 43.348499 176.16 180.73241 185.30479 190.3392 195.3736 199.946 203.1156 207.688 210.088 214.6604 219.2328 221.47 223.87 228.4424 233.0148 237.5872 286.79999 291.3717 296.4054 298.64191 303.21359 305.61359 310.1853 314.75699 316.9935 319.39349 323.96521 328.5369 333.10861 397.44 402.01239 406.58481 411.6192 416.65359 421.22601 424.3956 428.96799 431.36801 435.9404 440.51279 442.75 445.14999 449.72241 454.2948 458.86719 503.28 509.2204 514.22839 517.37158 519.5824 521.79321 524.19318 528.7392 533.28522 535.49597 537.896 542.44202 546.98798 551.534">Dated Date:January 15, 1997July 15, 1997January 15, 1998April 15, 1998</tspan><tspan
         id="tspan36"
         y="39.119999"
         x="0 6.3983998 9.5291996 11.7276 16.7232 18.9216 23.9172 28.4508 30.6492 33.049198 35.247601 39.7812 44.3148 49.310398 53.844002 56.243999 62.172001 66.705597 69.365997 73.899597 176.16 181.22729 185.8326 190.8999 194.1024 199.16969 203.77499 206.97749 211.58279 213.9828 218.5881 220.8582 223.25819 227.86349 232.4688 237.0741 286.79999 291.3717 296.4054 298.64191 303.21359 305.61359 310.1853 314.75699 316.9935 319.39349 323.96521 328.5369 333.10861 397.44 402.01239 406.58481 411.6192 416.65359 421.22601 424.3956 428.96799 431.36801 435.9404 440.51279 442.75 445.14999 449.72241 454.2948 458.86719 503.28 509.2204 514.22839 517.37158 519.5824 521.79321 524.19318 528.7392 533.28522 535.49597 537.896 542.44202 546.98798 551.534">Original Issue Date:February 6, 1997July 15, 1997January 15, 1998April 15, 1998</tspan><tspan
         id="tspan38"
         y="48.720001"
         x="0 5.9194999 10.9066 15.8937 18.083599 20.7355 22.9254 27.9125 32.899601 37.424702 39.614601 42.014599 44.204498 48.729599 53.2547 58.241798 62.766899 65.166901 71.086403 75.611504 78.263397 82.788498 176.16 182.1004 187.1084 190.2516 192.4624 194.6732 197.0732 201.6192 206.16521 208.37601 210.776 215.32201 219.868 224.414 286.79999 293.255 297.84521 300.56219 305.61441 310.6666 315.25681 318.44421 320.84421 325.43439 330.0246 332.2796 334.6796 339.26981 343.85999 348.4502 397.44">Additional Issue Date:April 15, 1997October 15, 1997 </tspan><tspan
         id="tspan40"
         y="68.400002"
         x="0 6.9489002 11.571 14.3199 19.403999 22.623301 24.9102 27.6591 32.2812 34.681198 40.697701 45.319801 48.068699 52.6908 176.16 180.73241 185.30479 190.3392 195.3736 199.946 203.1156 207.688 210.088 214.6604 219.2328 221.47 223.87 228.4424 233.0148 237.5872 286.79999 291.3717 296.4054 298.64191 303.21359 305.61359 310.1853 314.75699 316.9935 319.39349 323.96521 328.5369 333.10861 397.44 402.01239 406.58481 411.6192 416.65359 421.22601 424.3956 428.96799 431.36801 435.9404 440.51279 442.75 445.14999 449.72241 454.2948 458.86719 503.28 509.2204 514.22839 517.37158 519.5824 521.79321 524.19318 528.7392 533.28522 535.49597 537.896 542.44202 546.98798 551.534">Maturity Date:January 15, 2007July 15, 2002January 15, 2008April 15, 2028</tspan><tspan
         id="tspan42"
         y="78.239998"
         x="0 5.9816999 10.569 13.2831 15.6831 21.664801 27.1845 29.4366 31.836599 36.885899 41.9352 44.335201 50.316898 54.904202 57.618301 62.205601 67.254898 69.6549 75.636597 80.2239 82.938004 87.525299 174.96001 179.53951 184.119 188.6985 190.94279 195.52229 200.10181 204.6813 209.2608 285.60001 290.1795 294.759 299.3385 301.58279 306.16229 310.74179 315.32129 319.90079 396.23999 400.81949 405.39899 409.97849 412.22281 416.80231 421.38181 425.9613 430.5408 501.84 506.41949 510.99899 515.57849 517.82281 522.40228 526.98181 531.56128 536.14081">Ref CPI on Dated Date:158.43548160.15484161.55484161.74000</tspan></text>
<path
       id="path46"
       style="fill:#000000;fill-opacity:1;fill-rule:nonzero;stroke:none"
       d="M 76.32,412.32 H 706.56 V 414 H 76.32 Z" /><text
       id="text50"
       style="font-variant:normal;font-weight:bold;font-size:8.39999962px;font-family:Arial;-inkscape-font-specification:'Arial Bold';writing-mode:lr-tb;fill:#000000;fill-opacity:1;fill-rule:nonzero;stroke:none"
       transform="matrix(1,0,0,-1,120.48,395.76)"><tspan
         id="tspan48"
         y="0"
         x="0 6.0141001 10.6338 13.3803 72.480003 78.475601 83.076797 85.804802 88.204803 94.200401 99.734001 163.2 165.4171 170.4314 175.44569 179.998 184.55029 186.9503 192.897 197.4493 200.1284 202.3455 271.20001 273.41711 278.4314 283.44571 287.99799 292.55029 294.95029 300.897 305.44931 308.12839 310.34549 384.48001 386.69711 391.7114 396.72571 401.27802 405.83029 408.23029 414.177 418.72931 421.40839 423.62549 490.07999 492.29709 497.3114 502.32571 506.87799 511.4303 513.83032 519.77698 524.32928 527.00842 529.22552">DateRef CPIIndex RatioIndex RatioIndex RatioIndex Ratio</tspan></text>
<path
       id="path52"
       style="fill:#000000;fill-opacity:1;fill-rule:nonzero;stroke:none"
       d="m 76.32,392.64 h 630.24 v 1.68 H 76.32 Z" /><text
       id="text116"
       style="font-variant:normal;font-weight:bold;font-size:8.39999962px;font-family:Arial;-inkscape-font-specification:'Arial Bold';writing-mode:lr-tb;fill:#000000;fill-opacity:1;fill-rule:nonzero;stroke:none"
       transform="matrix(1,0,0,-1,88.08,376.32)"><tspan
         id="tspan54"
         y="0"
         x="0 4.4489999 9.3599997 14.271 36.48 53.040001 57.599998 62.16 66.720001 98.639999 103.2195 107.799 112.3785 114.6228 119.2023 123.7818 128.3613 132.9408 201.12 205.705 207.9548 212.53979 217.1248 221.70979 226.2948 309.35999 313.94501 316.19479 320.77979 325.36481 329.9498 334.53479 422.39999 426.98499 429.2348 433.81979 438.40479 442.98981 447.5748 528 532.58502 534.83478 539.4198 544.00482 548.58978 553.1748">June11998162.200001.023761.012771.003991.00284</tspan><tspan
         id="tspan56"
         y="9.8400002"
         x="0 4.4489999 9.3599997 14.271 36.48 53.040001 57.599998 62.16 66.720001 98.639999 103.2195 107.799 112.3785 114.6228 119.2023 123.7818 128.3613 132.9408 201.12 205.705 207.9548 212.53979 217.1248 221.70979 226.2948 309.35999 313.94501 316.19479 320.77979 325.36481 329.9498 334.53479 422.39999 426.98499 429.2348 433.81979 438.40479 442.98981 447.5748 528 532.58502 534.83478 539.4198 544.00482 548.58978 553.1748">June21998162.210001.023821.012831.004061.00291</tspan><tspan
         id="tspan58"
         y="19.68"
         x="0 4.4489999 9.3599997 14.271 36.48 53.040001 57.599998 62.16 66.720001 98.639999 103.2195 107.799 112.3785 114.6228 119.2023 123.7818 128.3613 132.9408 201.12 205.705 207.9548 212.53979 217.1248 221.70979 226.2948 309.35999 313.94501 316.19479 320.77979 325.36481 329.9498 334.53479 422.39999 426.98499 429.2348 433.81979 438.40479 442.98981 447.5748 528 532.58502 534.83478 539.4198 544.00482 548.58978 553.1748">June31998162.220001.023891.012891.004121.00297</tspan><tspan
         id="tspan60"
         y="29.52"
         x="0 4.4489999 9.3599997 14.271 36.48 53.040001 57.599998 62.16 66.720001 98.639999 103.2195 107.799 112.3785 114.6228 119.2023 123.7818 128.3613 132.9408 201.12 205.705 207.9548 212.53979 217.1248 221.70979 226.2948 309.35999 313.94501 316.19479 320.77979 325.36481 329.9498 334.53479 422.39999 426.98499 429.2348 433.81979 438.40479 442.98981 447.5748 528 532.58502 534.83478 539.4198 544.00482 548.58978 553.1748">June41998162.230001.023951.012961.004181.00303</tspan><tspan
         id="tspan62"
         y="39.119999"
         x="0 4.4489999 9.3599997 14.271 36.48 53.040001 57.599998 62.16 66.720001 98.639999 103.2195 107.799 112.3785 114.6228 119.2023 123.7818 128.3613 132.9408 201.12 205.705 207.9548 212.53979 217.1248 221.70979 226.2948 309.35999 313.94501 316.19479 320.77979 325.36481 329.9498 334.53479 422.39999 426.98499 429.2348 433.81979 438.40479 442.98981 447.5748 528 532.58502 534.83478 539.4198 544.00482 548.58978 553.1748">June51998162.240001.024011.013021.004241.00309</tspan><tspan
         id="tspan64"
         y="48.959999"
         x="0 4.4489999 9.3599997 14.271 36.48 53.040001 57.599998 62.16 66.720001 98.639999 103.2195 107.799 112.3785 114.6228 119.2023 123.7818 128.3613 132.9408 201.12 205.705 207.9548 212.53979 217.1248 221.70979 226.2948 309.35999 313.94501 316.19479 320.77979 325.36481 329.9498 334.53479 422.39999 426.98499 429.2348 433.81979 438.40479 442.98981 447.5748 528 532.58502 534.83478 539.4198 544.00482 548.58978 553.1748">June61998162.250001.024081.013081.004301.00315</tspan><tspan
         id="tspan66"
         y="58.799999"
         x="0 4.4489999 9.3599997 14.271 36.48 53.040001 57.599998 62.16 66.720001 98.639999 103.2195 107.799 112.3785 114.6228 119.2023 123.7818 128.3613 132.9408 201.12 205.705 207.9548 212.53979 217.1248 221.70979 226.2948 309.35999 313.94501 316.19479 320.77979 325.36481 329.9498 334.53479 422.39999 426.98499 429.2348 433.81979 438.40479 442.98981 447.5748 528 532.58502 534.83478 539.4198 544.00482 548.58978 553.1748">June71998162.260001.024141.013141.004361.00322</tspan><tspan
         id="tspan68"
         y="68.639999"
         x="0 4.4489999 9.3599997 14.271 36.48 53.040001 57.599998 62.16 66.720001 98.639999 103.2195 107.799 112.3785 114.6228 119.2023 123.7818 128.3613 132.9408 201.12 205.705 207.9548 212.53979 217.1248 221.70979 226.2948 309.35999 313.94501 316.19479 320.77979 325.36481 329.9498 334.53479 422.39999 426.98499 429.2348 433.81979 438.40479 442.98981 447.5748 528 532.58502 534.83478 539.4198 544.00482 548.58978 553.1748">June81998162.270001.024201.013211.004431.00328</tspan><tspan
         id="tspan70"
         y="78.239998"
         x="0 4.4489999 9.3599997 14.271 36.48 53.040001 57.599998 62.16 66.720001 98.639999 103.2195 107.799 112.3785 114.6228 119.2023 123.7818 128.3613 132.9408 201.12 205.705 207.9548 212.53979 217.1248 221.70979 226.2948 309.35999 313.94501 316.19479 320.77979 325.36481 329.9498 334.53479 422.39999 426.98499 429.2348 433.81979 438.40479 442.98981 447.5748 528 532.58502 534.83478 539.4198 544.00482 548.58978 553.1748">June91998162.280001.024271.013271.004491.00334</tspan><tspan
         id="tspan72"
         y="88.080002"
         x="0 4.4489999 9.3599997 14.271 31.92 36.48 53.040001 57.599998 62.16 66.720001 98.639999 103.2195 107.799 112.3785 114.6228 119.2023 123.7818 128.3613 132.9408 201.12 205.705 207.9548 212.53979 217.1248 221.70979 226.2948 309.35999 313.94501 316.19479 320.77979 325.36481 329.9498 334.53479 422.39999 426.98499 429.2348 433.81979 438.40479 442.98981 447.5748 528 532.58502 534.83478 539.4198 544.00482 548.58978 553.1748">June101998162.290001.024331.013331.004551.00340</tspan><tspan
         id="tspan74"
         y="97.919998"
         x="0 4.4489999 9.3599997 14.271 31.92 36.48 53.040001 57.599998 62.16 66.720001 98.639999 103.2195 107.799 112.3785 114.6228 119.2023 123.7818 128.3613 132.9408 201.12 205.705 207.9548 212.53979 217.1248 221.70979 226.2948 309.35999 313.94501 316.19479 320.77979 325.36481 329.9498 334.53479 422.39999 426.98499 429.2348 433.81979 438.40479 442.98981 447.5748 528 532.58502 534.83478 539.4198 544.00482 548.58978 553.1748">June111998162.300001.024391.013391.004611.00346</tspan><tspan
         id="tspan76"
         y="107.76"
         x="0 4.4489999 9.3599997 14.271 31.92 36.48 53.040001 57.599998 62.16 66.720001 98.639999 103.2195 107.799 112.3785 114.6228 119.2023 123.7818 128.3613 132.9408 201.12 205.705 207.9548 212.53979 217.1248 221.70979 226.2948 309.35999 313.94501 316.19479 320.77979 325.36481 329.9498 334.53479 422.39999 426.98499 429.2348 433.81979 438.40479 442.98981 447.5748 528 532.58502 534.83478 539.4198 544.00482 548.58978 553.1748">June121998162.310001.024451.013461.004671.00352</tspan><tspan
         id="tspan78"
         y="117.36"
         x="0 4.4489999 9.3599997 14.271 31.92 36.48 53.040001 57.599998 62.16 66.720001 98.639999 103.2195 107.799 112.3785 114.6228 119.2023 123.7818 128.3613 132.9408 201.12 205.705 207.9548 212.53979 217.1248 221.70979 226.2948 309.35999 313.94501 316.19479 320.77979 325.36481 329.9498 334.53479 422.39999 426.98499 429.2348 433.81979 438.40479 442.98981 447.5748 528 532.58502 534.83478 539.4198 544.00482 548.58978 553.1748">June131998162.320001.024521.013521.004741.00359</tspan><tspan
         id="tspan80"
         y="127.2"
         x="0 4.4489999 9.3599997 14.271 31.92 36.48 53.040001 57.599998 62.16 66.720001 98.639999 103.2195 107.799 112.3785 114.6228 119.2023 123.7818 128.3613 132.9408 201.12 205.705 207.9548 212.53979 217.1248 221.70979 226.2948 309.35999 313.94501 316.19479 320.77979 325.36481 329.9498 334.53479 422.39999 426.98499 429.2348 433.81979 438.40479 442.98981 447.5748 528 532.58502 534.83478 539.4198 544.00482 548.58978 553.1748">June141998162.330001.024581.013581.004801.00365</tspan><tspan
         id="tspan82"
         y="137.03999"
         x="0 4.4489999 9.3599997 14.271 31.92 36.48 53.040001 57.599998 62.16 66.720001 98.639999 103.2195 107.799 112.3785 114.6228 119.2023 123.7818 128.3613 132.9408 201.12 205.705 207.9548 212.53979 217.1248 221.70979 226.2948 309.35999 313.94501 316.19479 320.77979 325.36481 329.9498 334.53479 422.39999 426.98499 429.2348 433.81979 438.40479 442.98981 447.5748 528 532.58502 534.83478 539.4198 544.00482 548.58978 553.1748">June151998162.340001.024641.013641.004861.00371</tspan><tspan
         id="tspan84"
         y="146.88"
         x="0 4.4489999 9.3599997 14.271 31.92 36.48 53.040001 57.599998 62.16 66.720001 98.639999 103.2195 107.799 112.3785 114.6228 119.2023 123.7818 128.3613 132.9408 201.12 205.705 207.9548 212.53979 217.1248 221.70979 226.2948 309.35999 313.94501 316.19479 320.77979 325.36481 329.9498 334.53479 422.39999 426.98499 429.2348 433.81979 438.40479 442.98981 447.5748 528 532.58502 534.83478 539.4198 544.00482 548.58978 553.1748">June161998162.350001.024711.013711.004921.00377</tspan><tspan
         id="tspan86"
         y="156.48"
         x="0 4.4489999 9.3599997 14.271 31.92 36.48 53.040001 57.599998 62.16 66.720001 98.639999 103.2195 107.799 112.3785 114.6228 119.2023 123.7818 128.3613 132.9408 201.12 205.705 207.9548 212.53979 217.1248 221.70979 226.2948 309.35999 313.94501 316.19479 320.77979 325.36481 329.9498 334.53479 422.39999 426.98499 429.2348 433.81979 438.40479 442.98981 447.5748 528 532.58502 534.83478 539.4198 544.00482 548.58978 553.1748">June171998162.360001.024771.013771.004981.00383</tspan><tspan
         id="tspan88"
         y="166.32001"
         x="0 4.4489999 9.3599997 14.271 31.92 36.48 53.040001 57.599998 62.16 66.720001 98.639999 103.2195 107.799 112.3785 114.6228 119.2023 123.7818 128.3613 132.9408 201.12 205.705 207.9548 212.53979 217.1248 221.70979 226.2948 309.35999 313.94501 316.19479 320.77979 325.36481 329.9498 334.53479 422.39999 426.98499 429.2348 433.81979 438.40479 442.98981 447.5748 528 532.58502 534.83478 539.4198 544.00482 548.58978 553.1748">June181998162.370001.024831.013831.005051.00390</tspan><tspan
         id="tspan90"
         y="176.16"
         x="0 4.4489999 9.3599997 14.271 31.92 36.48 53.040001 57.599998 62.16 66.720001 98.639999 103.2195 107.799 112.3785 114.6228 119.2023 123.7818 128.3613 132.9408 201.12 205.705 207.9548 212.53979 217.1248 221.70979 226.2948 309.35999 313.94501 316.19479 320.77979 325.36481 329.9498 334.53479 422.39999 426.98499 429.2348 433.81979 438.40479 442.98981 447.5748 528 532.58502 534.83478 539.4198 544.00482 548.58978 553.1748">June191998162.380001.024901.013891.005111.00396</tspan><tspan
         id="tspan92"
         y="186"
         x="0 4.4489999 9.3599997 14.271 31.92 36.48 53.040001 57.599998 62.16 66.720001 98.639999 103.2195 107.799 112.3785 114.6228 119.2023 123.7818 128.3613 132.9408 201.12 205.705 207.9548 212.53979 217.1248 221.70979 226.2948 309.35999 313.94501 316.19479 320.77979 325.36481 329.9498 334.53479 422.39999 426.98499 429.2348 433.81979 438.40479 442.98981 447.5748 528 532.58502 534.83478 539.4198 544.00482 548.58978 553.1748">June201998162.390001.024961.013961.005171.00402</tspan><tspan
         id="tspan94"
         y="195.60001"
         x="0 4.4489999 9.3599997 14.271 31.92 36.48 53.040001 57.599998 62.16 66.720001 98.639999 103.2195 107.799 112.3785 114.6228 119.2023 123.7818 128.3613 132.9408 201.12 205.705 207.9548 212.53979 217.1248 221.70979 226.2948 309.35999 313.94501 316.19479 320.77979 325.36481 329.9498 334.53479 422.39999 426.98499 429.2348 433.81979 438.40479 442.98981 447.5748 528 532.58502 534.83478 539.4198 544.00482 548.58978 553.1748">June211998162.400001.025021.014021.005231.00408</tspan><tspan
         id="tspan96"
         y="205.44"
         x="0 4.4489999 9.3599997 14.271 31.92 36.48 53.040001 57.599998 62.16 66.720001 98.639999 103.2195 107.799 112.3785 114.6228 119.2023 123.7818 128.3613 132.9408 201.12 205.705 207.9548 212.53979 217.1248 221.70979 226.2948 309.35999 313.94501 316.19479 320.77979 325.36481 329.9498 334.53479 422.39999 426.98499 429.2348 433.81979 438.40479 442.98981 447.5748 528 532.58502 534.83478 539.4198 544.00482 548.58978 553.1748">June221998162.410001.025091.014081.005291.00414</tspan><tspan
         id="tspan98"
         y="215.28"
         x="0 4.4489999 9.3599997 14.271 31.92 36.48 53.040001 57.599998 62.16 66.720001 98.639999 103.2195 107.799 112.3785 114.6228 119.2023 123.7818 128.3613 132.9408 201.12 205.705 207.9548 212.53979 217.1248 221.70979 226.2948 309.35999 313.94501 316.19479 320.77979 325.36481 329.9498 334.53479 422.39999 426.98499 429.2348 433.81979 438.40479 442.98981 447.5748 528 532.58502 534.83478 539.4198 544.00482 548.58978 553.1748">June231998162.420001.025151.014141.005361.00420</tspan><tspan
         id="tspan100"
         y="225.12"
         x="0 4.4489999 9.3599997 14.271 31.92 36.48 53.040001 57.599998 62.16 66.720001 98.639999 103.2195 107.799 112.3785 114.6228 119.2023 123.7818 128.3613 132.9408 201.12 205.705 207.9548 212.53979 217.1248 221.70979 226.2948 309.35999 313.94501 316.19479 320.77979 325.36481 329.9498 334.53479 422.39999 426.98499 429.2348 433.81979 438.40479 442.98981 447.5748 528 532.58502 534.83478 539.4198 544.00482 548.58978 553.1748">June241998162.430001.025211.014211.005421.00427</tspan><tspan
         id="tspan102"
         y="234.72"
         x="0 4.4489999 9.3599997 14.271 31.92 36.48 53.040001 57.599998 62.16 66.720001 98.639999 103.2195 107.799 112.3785 114.6228 119.2023 123.7818 128.3613 132.9408 201.12 205.705 207.9548 212.53979 217.1248 221.70979 226.2948 309.35999 313.94501 316.19479 320.77979 325.36481 329.9498 334.53479 422.39999 426.98499 429.2348 433.81979 438.40479 442.98981 447.5748 528 532.58502 534.83478 539.4198 544.00482 548.58978 553.1748">June251998162.440001.025281.014271.005481.00433</tspan><tspan
         id="tspan104"
         y="244.56"
         x="0 4.4489999 9.3599997 14.271 31.92 36.48 53.040001 57.599998 62.16 66.720001 98.639999 103.2195 107.799 112.3785 114.6228 119.2023 123.7818 128.3613 132.9408 201.12 205.705 207.9548 212.53979 217.1248 221.70979 226.2948 309.35999 313.94501 316.19479 320.77979 325.36481 329.9498 334.53479 422.39999 426.98499 429.2348 433.81979 438.40479 442.98981 447.5748 528 532.58502 534.83478 539.4198 544.00482 548.58978 553.1748">June261998162.450001.025341.014331.005541.00439</tspan><tspan
         id="tspan106"
         y="254.39999"
         x="0 4.4489999 9.3599997 14.271 31.92 36.48 53.040001 57.599998 62.16 66.720001 98.639999 103.2195 107.799 112.3785 114.6228 119.2023 123.7818 128.3613 132.9408 201.12 205.705 207.9548 212.53979 217.1248 221.70979 226.2948 309.35999 313.94501 316.19479 320.77979 325.36481 329.9498 334.53479 422.39999 426.98499 429.2348 433.81979 438.40479 442.98981 447.5748 528 532.58502 534.83478 539.4198 544.00482 548.58978 553.1748">June271998162.460001.025401.014391.005601.00445</tspan><tspan
         id="tspan108"
         y="264.23999"
         x="0 4.4489999 9.3599997 14.271 31.92 36.48 53.040001 57.599998 62.16 66.720001 98.639999 103.2195 107.799 112.3785 114.6228 119.2023 123.7818 128.3613 132.9408 201.12 205.705 207.9548 212.53979 217.1248 221.70979 226.2948 309.35999 313.94501 316.19479 320.77979 325.36481 329.9498 334.53479 422.39999 426.98499 429.2348 433.81979 438.40479 442.98981 447.5748 528 532.58502 534.83478 539.4198 544.00482 548.58978 553.1748">June281998162.470001.025461.014461.005661.00451</tspan><tspan
         id="tspan110"
         y="273.84"
         x="0 4.4489999 9.3599997 14.271 31.92 36.48 53.040001 57.599998 62.16 66.720001 98.639999 103.2195 107.799 112.3785 114.6228 119.2023 123.7818 128.3613 132.9408 201.12 205.705 207.9548 212.53979 217.1248 221.70979 226.2948 309.35999 313.94501 316.19479 320.77979 325.36481 329.9498 334.53479 422.39999 426.98499 429.2348 433.81979 438.40479 442.98981 447.5748 528 532.58502 534.83478 539.4198 544.00482 548.58978 553.1748">June291998162.480001.025531.014521.005731.00458</tspan><tspan
         id="tspan112"
         y="283.67999"
         x="0 4.4489999 9.3599997 14.271 31.92 36.48 53.040001 57.599998 62.16 66.720001 98.639999 103.2195 107.799 112.3785 114.6228 119.2023 123.7818 128.3613 132.9408 201.12 205.705 207.9548 212.53979 217.1248 221.70979 226.2948 309.35999 313.94501 316.19479 320.77979 325.36481 329.9498 334.53479 422.39999 426.98499 429.2348 433.81979 438.40479 442.98981 447.5748 528 532.58502 534.83478 539.4198 544.00482 548.58978 553.1748">June301998162.490001.025591.014581.005791.00464</tspan><tspan
         id="tspan114"
         y="293.51999"
         x="0"> </tspan></text>
<path
       id="path118"
       style="fill:#000000;fill-opacity:1;fill-rule:nonzero;stroke:none"
       d="m 171.84,70.08 h 1.44 V 414 h -1.44 z" /><path
       id="path120"
       style="fill:#000000;fill-opacity:1;fill-rule:nonzero;stroke:none"
       d="m 242.16,70.08 h 1.68 v 451.44 h -1.68 z" /><path
       id="path122"
       style="fill:#000000;fill-opacity:1;fill-rule:nonzero;stroke:none"
       d="m 362.88,70.08 h 1.68 v 451.44 h -1.68 z" /><path
       id="path124"
       style="fill:#000000;fill-opacity:1;fill-rule:nonzero;stroke:none"
       d="m 468.72,70.08 h 1.44 v 451.44 h -1.44 z" /><path
       id="path126"
       style="fill:#000000;fill-opacity:1;fill-rule:nonzero;stroke:none"
       d="m 579.36,70.08 h 1.44 v 451.44 h -1.44 z" /><path
       id="path128"
       style="fill:#000000;fill-opacity:1;fill-rule:nonzero;stroke:none"
       d="m 76.32,70.08 h 630.24 v 1.44 H 76.32 Z" /><text
       id="text132"
       style="font-variant:normal;font-weight:bold;font-size:8.39999962px;font-family:Arial;-inkscape-font-specification:'Arial Bold';writing-mode:lr-tb;fill:#000000;fill-opacity:1;fill-rule:nonzero;stroke:none"
       transform="matrix(1,0,0,-1,88.08,53.52)"><tspan
         id="tspan130"
         y="0"
         x="0 6.0001001 11.5382 13.8087 16.541201 22.5413 24.941299 27.6738 33.673901 39.212002 45.212101 47.944599 50.344601 53.077099 58.144798 61.347698 63.7477 101.52 106.5803 111.1786 116.2389 119.4344 124.4947 129.093 132.2885 136.8868 139.2868 143.8851 148.4834 153.0817 174.96001 179.55499 184.14999 188.745 191.00481 318.48001 325.3728 329.93881 333.10199 337.668 342.69601 345.09601 349.66199 354.228 358.79401 396.23999 400.83499 405.42999 410.02499 412.28479 525.35999 531.27631 536.26019 539.37927 541.56598 543.75269 546.15271 550.67462 555.19647 559.71838 587.52002 592.11499 596.71002 601.30499 603.56482">CPI-U (NSA) for :February 1998161.9March 1998162.2April 1998162.5</tspan></text>
<path
       id="path134"
       style="fill:#000000;fill-opacity:1;fill-rule:nonzero;stroke:none"
       d="m 76.32,40.56 h 1.44 v 480.96 h -1.44 z" /><path
       id="path136"
       style="fill:#000000;fill-opacity:1;fill-rule:nonzero;stroke:none"
       d="m 76.32,40.56 h 630.24 v 1.68 H 76.32 Z" /><path
       id="path138"
       style="fill:#000000;fill-opacity:1;fill-rule:nonzero;stroke:none"
       d="m 705.12,40.56 h 1.44 v 480.96 h -1.44 z" /></g></svg>